if (_typeface_js && _typeface_js.loadFace) _typeface_js.loadFace({"glyphs":{"¦":{"x_min":267,"x_max":430,"ha":694,"o":"m 267 277 l 430 277 l 430 -237 l 267 -237 l 267 277 m 267 971 l 430 971 l 430 457 l 267 457 l 267 971 "},"Ž":{"x_min":-35,"x_max":906,"ha":897,"o":"m -35 0 l 5 193 l 553 800 l 113 800 l 156 999 l 906 999 l 867 815 l 319 208 l 785 208 l 741 0 l -35 0 m 405 1337 l 501 1337 l 586 1200 l 736 1337 l 840 1337 l 662 1086 l 489 1086 l 405 1337 "},"Á":{"x_min":-92,"x_max":887,"ha":949,"o":"m 573 376 l 514 764 l 342 376 l 573 376 m -92 0 l 407 999 l 684 999 l 887 0 l 628 0 l 601 173 l 250 173 l 176 0 l -92 0 m 436 1086 l 594 1337 l 806 1337 l 539 1086 l 436 1086 "},"Î":{"x_min":-7,"x_max":570,"ha":460,"o":"m -7 0 l 209 999 l 462 999 l 249 0 l -7 0 m 570 1086 l 473 1086 l 388 1220 l 237 1086 l 135 1086 l 311 1337 l 483 1337 l 570 1086 "},"e":{"x_min":16,"x_max":771,"ha":846,"o":"m 268 452 l 537 452 q 538 462 537 455 q 539 472 539 469 q 509 570 539 536 q 425 605 479 605 q 321 564 362 605 q 268 452 279 523 m 483 221 l 734 221 q 600 45 701 111 q 365 -21 500 -21 q 109 73 202 -21 q 16 330 16 168 q 132 638 16 515 q 426 762 248 762 q 680 670 590 762 q 771 413 771 578 q 768 363 771 389 q 759 301 765 336 l 252 301 l 252 276 q 281 182 252 214 q 366 150 310 150 q 437 168 407 150 q 483 221 466 186 "},"»":{"x_min":-16,"x_max":612,"ha":692,"o":"m 432 633 l 612 430 l 580 276 l 320 104 l 360 293 l 481 371 l 398 464 l 432 633 m 95 633 l 276 430 l 242 276 l -16 104 l 24 293 l 144 371 l 60 464 l 95 633 "},"∆":{"x_min":-1,"x_max":999,"ha":996,"o":"m 497 719 l 319 193 l 676 193 l 497 719 m 364 999 l 632 999 l 999 0 l -1 0 l 364 999 "},"ò":{"x_min":12,"x_max":826,"ha":899,"o":"m 451 585 q 309 506 365 585 q 253 313 253 427 q 287 194 253 236 q 385 152 322 152 q 527 231 470 152 q 585 432 585 311 q 549 544 585 504 q 451 585 514 585 m 12 316 q 135 640 12 516 q 455 765 258 765 q 726 671 626 765 q 826 416 826 577 q 701 96 826 221 q 380 -28 577 -28 q 111 64 210 -28 q 12 316 12 157 m 311 1076 l 493 1076 l 605 825 l 510 825 l 311 1076 "},"^":{"x_min":281,"x_max":1107,"ha":1389,"o":"m 596 991 l 791 991 l 1107 609 l 927 609 l 694 841 l 460 609 l 281 609 l 596 991 "},"«":{"x_min":17,"x_max":646,"ha":692,"o":"m 533 104 l 354 306 l 387 460 l 646 633 l 604 442 l 485 365 l 568 271 l 533 104 m 196 104 l 17 306 l 48 460 l 309 633 l 268 442 l 148 365 l 232 271 l 196 104 "},"∙":{"x_min":79,"x_max":330,"ha":410,"o":"m 79 479 q 115 569 79 532 q 205 606 152 606 q 294 569 258 606 q 330 479 330 532 q 294 389 330 426 q 205 353 258 353 q 115 389 152 353 q 79 479 79 426 "},"í":{"x_min":-21,"x_max":516,"ha":415,"o":"m -21 0 l 136 737 l 376 737 l 219 0 l -21 0 m 146 825 l 304 1076 l 516 1076 l 249 825 l 146 825 "},"ˆ":{"x_min":189,"x_max":624,"ha":694,"o":"m 624 825 l 527 825 l 442 959 l 291 825 l 189 825 l 365 1076 l 537 1076 l 624 825 "},"µ":{"x_min":-31,"x_max":854,"ha":892,"o":"m 130 739 l 373 739 l 319 380 q 313 327 315 352 q 311 283 311 302 q 335 196 311 225 q 408 168 359 168 q 501 214 467 168 q 552 363 536 260 l 612 739 l 854 739 l 735 0 l 517 0 l 530 84 q 469 11 502 33 q 388 -11 435 -11 q 316 10 348 -11 q 263 70 283 31 l 208 -290 l -31 -290 l 130 739 "},"č":{"x_min":18,"x_max":755,"ha":829,"o":"m 489 272 l 732 272 q 610 58 715 140 q 356 -24 506 -24 q 104 65 190 -24 q 18 327 18 155 q 131 638 18 517 q 424 760 245 760 q 665 681 577 760 q 755 464 752 602 l 515 464 q 487 550 513 519 q 414 582 460 582 q 303 501 348 582 q 259 299 259 420 q 286 196 259 231 q 367 161 314 161 q 444 190 411 161 q 489 272 476 219 m 278 1076 l 374 1076 l 459 939 l 609 1076 l 713 1076 l 535 825 l 362 825 l 278 1076 "},"’":{"x_min":104,"x_max":416,"ha":378,"o":"m 384 860 q 289 639 348 697 q 113 582 231 582 l 104 582 l 120 664 q 210 694 181 668 q 252 785 238 720 l 135 785 l 182 999 l 416 999 l 384 860 "},"-":{"x_min":-10,"x_max":444,"ha":479,"o":"m -10 268 l 33 469 l 444 469 l 401 268 l -10 268 "},"Q":{"x_min":56,"x_max":1062,"ha":1112,"o":"m 714 10 q 611 -18 665 -8 q 499 -29 558 -29 q 176 94 297 -29 q 56 426 56 218 q 210 855 56 687 q 608 1023 365 1023 q 940 903 818 1023 q 1062 576 1062 784 q 1010 302 1062 426 q 861 96 958 178 l 956 -26 l 827 -133 l 714 10 m 570 181 l 483 293 l 609 398 l 706 272 q 781 415 754 331 q 809 589 809 499 q 755 758 809 700 q 600 816 701 816 q 480 786 532 816 q 390 698 428 757 q 330 558 351 634 q 309 405 309 481 q 363 236 309 296 q 517 176 418 176 q 544 177 531 176 q 570 181 557 178 "},"M":{"x_min":-5,"x_max":1284,"ha":1278,"o":"m -5 0 l 205 999 l 551 999 l 585 290 l 936 999 l 1284 999 l 1072 0 l 843 0 l 1003 751 l 646 0 l 415 0 l 383 751 l 223 0 l -5 0 "},"œ":{"x_min":14,"x_max":1324,"ha":1397,"o":"m 668 79 q 539 0 611 26 q 386 -28 467 -28 q 113 64 213 -28 q 14 316 14 156 q 136 640 14 516 q 454 764 258 764 q 608 738 542 764 q 723 662 675 713 q 842 739 778 714 q 986 764 907 764 q 1232 671 1141 764 q 1324 422 1324 578 q 1321 360 1324 389 q 1313 301 1319 330 l 804 301 l 804 276 q 834 180 804 214 q 919 147 864 147 q 989 165 958 147 q 1036 220 1019 184 l 1287 220 q 1149 40 1254 108 q 904 -28 1043 -28 q 766 -1 825 -28 q 668 79 708 24 m 821 452 l 1090 452 q 1091 462 1090 455 q 1092 472 1092 469 q 1062 571 1092 536 q 978 606 1032 606 q 874 564 915 606 q 821 452 832 523 m 451 585 q 309 506 366 585 q 253 313 253 427 q 287 194 253 236 q 385 152 322 152 q 528 231 471 152 q 586 432 586 311 q 550 544 586 504 q 451 585 515 585 "},"{":{"x_min":103,"x_max":606,"ha":694,"o":"m 606 1002 l 606 838 q 591 838 601 838 q 578 839 582 839 q 488 815 511 839 q 466 715 466 791 l 466 553 q 434 417 466 458 q 322 359 403 376 q 434 303 403 343 q 466 168 466 263 l 466 4 q 488 -93 466 -69 q 576 -117 511 -117 q 591 -116 581 -117 q 606 -116 601 -116 l 606 -280 q 577 -280 595 -280 q 550 -281 559 -281 q 428 -273 476 -281 q 347 -248 379 -265 q 290 -188 306 -226 q 275 -57 275 -149 l 275 115 q 241 242 275 205 q 127 279 207 279 q 115 278 124 279 q 103 278 107 278 l 103 442 q 115 441 107 442 q 127 440 123 440 q 241 478 207 440 q 275 606 275 515 l 275 778 q 291 909 275 870 q 347 970 307 948 q 428 995 379 987 q 551 1003 478 1003 q 577 1002 559 1003 q 606 1002 595 1002 "},"¼":{"x_min":83,"x_max":1248,"ha":1265,"o":"m 1035 224 l 1087 440 l 864 224 l 1035 224 m 982 0 l 1011 122 l 729 122 l 760 254 l 1069 536 l 1248 536 l 1175 224 l 1238 224 l 1214 122 l 1150 122 l 1121 0 l 982 0 m 285 0 l 860 985 l 984 985 l 408 0 l 285 0 m 144 422 l 238 811 q 164 800 202 804 q 83 796 125 796 l 102 877 q 230 911 183 889 q 301 973 278 934 l 429 973 l 297 422 l 144 422 "},"#":{"x_min":16,"x_max":1053,"ha":1068,"o":"m 479 571 l 424 413 l 590 413 l 646 571 l 479 571 m 464 994 l 633 994 l 539 728 l 698 728 l 794 994 l 964 994 l 869 728 l 1053 728 l 994 571 l 812 571 l 758 415 l 946 415 l 889 258 l 703 258 l 607 -8 l 437 -8 l 532 258 l 372 258 l 277 -8 l 107 -8 l 201 258 l 16 258 l 74 415 l 257 415 l 313 571 l 121 571 l 179 728 l 368 728 l 464 994 "},"Ê":{"x_min":0,"x_max":908,"ha":895,"o":"m 0 0 l 213 999 l 908 999 l 866 799 l 423 799 l 384 616 l 790 616 l 749 419 l 342 419 l 296 200 l 764 200 l 721 0 l 0 0 m 787 1086 l 690 1086 l 605 1220 l 454 1086 l 352 1086 l 528 1337 l 700 1337 l 787 1086 "},")":{"x_min":-136,"x_max":413,"ha":550,"o":"m 123 997 l 281 997 q 381 733 349 855 q 413 495 413 610 q 324 119 413 301 q 55 -242 236 -62 l -136 -242 q 113 166 28 -46 q 199 598 199 380 q 180 786 199 689 q 123 997 162 883 "},"Å":{"x_min":-92,"x_max":887,"ha":949,"o":"m 479 1159 q 500 1107 479 1129 q 552 1086 522 1086 q 603 1107 582 1086 q 625 1158 625 1128 q 603 1209 625 1187 q 552 1232 581 1232 q 501 1210 523 1232 q 479 1159 479 1188 m 375 1159 q 426 1284 375 1233 q 551 1336 477 1336 q 676 1283 624 1336 q 729 1159 729 1231 q 677 1033 729 1085 q 551 982 625 982 q 425 1033 476 982 q 375 1159 375 1084 m -92 0 l 384 950 l 694 950 l 887 0 l 629 0 l 601 173 l 250 173 l 176 0 l -92 0 m 573 376 l 514 764 l 343 376 l 573 376 "},"¸":{"x_min":21,"x_max":410,"ha":694,"o":"m 21 -297 l 55 -207 q 140 -233 99 -224 q 215 -243 181 -243 q 263 -229 245 -243 q 281 -192 281 -215 q 255 -156 281 -166 q 164 -146 230 -146 l 145 -146 l 196 0 l 273 0 l 251 -63 q 370 -93 331 -64 q 410 -180 410 -123 q 361 -297 410 -256 q 221 -338 312 -338 q 134 -327 184 -338 q 21 -297 84 -317 "},"a":{"x_min":-16,"x_max":731,"ha":823,"o":"m 467 351 q 353 323 427 336 q 222 221 222 299 q 245 164 222 186 q 306 142 269 142 q 411 186 375 142 q 467 351 447 231 m 435 76 q 329 6 387 30 q 206 -17 271 -17 q 45 43 106 -17 q -16 203 -16 103 q 52 372 -16 312 q 265 450 121 433 q 347 458 295 454 q 498 538 498 473 q 473 587 498 568 q 409 606 448 606 q 335 589 362 606 q 297 535 309 572 l 70 535 q 184 707 97 650 q 417 765 271 765 q 648 703 565 765 q 731 533 731 642 q 729 494 731 511 q 724 463 727 477 l 655 124 q 652 101 653 114 q 651 76 651 89 q 655 45 651 57 q 670 23 659 33 l 670 0 l 435 0 l 435 76 "},"=":{"x_min":172,"x_max":984,"ha":1157,"o":"m 172 340 l 984 340 l 984 184 l 172 184 l 172 340 m 172 644 l 984 644 l 984 487 l 172 487 l 172 644 "},"˚":{"x_min":252,"x_max":607,"ha":694,"o":"m 358 973 q 378 921 358 942 q 429 900 399 900 q 480 921 459 900 q 501 973 501 942 q 479 1024 501 1002 q 429 1046 457 1046 q 378 1024 399 1046 q 358 973 358 1002 m 252 973 q 303 1098 252 1046 q 429 1150 354 1150 q 554 1098 502 1150 q 607 973 607 1046 q 555 847 607 899 q 429 796 503 796 q 303 847 354 796 q 252 973 252 898 "},"ú":{"x_min":20,"x_max":847,"ha":895,"o":"m 847 737 l 690 0 l 465 0 l 489 105 q 366 11 429 42 q 234 -20 303 -20 q 75 34 131 -20 q 20 188 20 88 q 24 253 20 217 q 37 328 28 288 l 123 737 l 364 737 l 282 348 q 271 291 275 317 q 268 253 268 264 q 288 190 268 211 q 350 169 308 169 q 460 217 414 169 q 524 353 506 266 l 607 737 l 847 737 m 385 825 l 543 1076 l 755 1076 l 488 825 l 385 825 "},"¯":{"x_min":220,"x_max":660,"ha":694,"o":"m 220 893 l 243 1007 l 660 1007 l 634 893 l 220 893 "},"Z":{"x_min":-35,"x_max":906,"ha":897,"o":"m -35 0 l 5 193 l 553 800 l 113 800 l 156 999 l 906 999 l 867 815 l 319 208 l 785 208 l 741 0 l -35 0 "},"u":{"x_min":20,"x_max":847,"ha":895,"o":"m 847 737 l 690 0 l 465 0 l 489 105 q 366 11 429 42 q 234 -20 303 -20 q 75 34 131 -20 q 20 188 20 88 q 24 253 20 217 q 37 328 28 288 l 123 737 l 364 737 l 282 348 q 271 291 275 317 q 268 253 268 264 q 288 190 268 211 q 350 169 308 169 q 460 217 414 169 q 524 353 506 266 l 607 737 l 847 737 "},"k":{"x_min":-21,"x_max":861,"ha":817,"o":"m -21 0 l 191 999 l 425 999 l 320 511 l 574 737 l 861 737 l 547 465 l 692 0 l 459 0 l 362 316 l 262 230 l 213 0 l -21 0 "},"Ù":{"x_min":69,"x_max":1052,"ha":1048,"o":"m 198 999 l 449 999 l 342 487 q 325 387 331 435 q 319 317 319 340 q 358 216 319 253 q 467 180 397 180 q 599 233 553 180 q 680 450 645 286 l 795 999 l 1052 999 l 956 547 q 948 508 953 534 q 831 138 888 218 q 680 14 774 57 q 463 -28 586 -28 q 173 61 277 -28 q 69 311 69 150 q 111 583 69 383 l 115 604 l 198 999 m 460 1337 l 642 1337 l 754 1086 l 659 1086 l 460 1337 "},"¢":{"x_min":21,"x_max":757,"ha":819,"o":"m 412 584 l 405 584 q 303 504 346 584 q 260 311 260 424 q 268 240 260 268 q 294 198 276 212 l 412 584 m 494 277 l 737 277 q 611 58 714 138 q 351 -21 508 -21 q 304 -18 339 -21 q 300 -18 302 -18 l 243 -203 l 169 -203 l 230 -4 q 76 118 131 30 q 21 330 21 206 q 133 642 21 521 q 426 764 246 764 q 448 763 439 764 q 464 763 456 763 l 514 928 l 588 928 l 534 753 q 697 654 643 722 q 757 472 750 587 l 521 471 q 506 535 517 513 q 474 567 495 557 l 354 170 q 358 170 355 170 q 383 168 375 168 q 452 196 422 168 q 494 277 481 225 "},"Ş":{"x_min":18,"x_max":895,"ha":920,"o":"m 18 319 l 256 319 q 301 202 258 239 q 431 165 343 165 q 549 194 504 165 q 594 272 594 224 q 438 400 594 331 q 350 441 382 425 q 179 565 233 497 q 126 726 126 633 q 224 942 126 862 q 492 1023 323 1023 q 785 942 683 1023 q 895 704 887 861 l 663 704 l 663 706 q 622 805 663 771 q 501 839 581 839 q 398 811 437 839 q 359 741 359 784 q 504 622 359 687 q 591 581 560 597 q 775 453 721 520 q 829 291 829 386 q 723 57 829 142 q 433 -28 617 -28 q 132 61 239 -28 q 18 319 26 150 m 144 -297 l 178 -207 q 263 -233 222 -224 q 338 -243 304 -243 q 386 -229 368 -243 q 404 -192 404 -215 q 378 -156 404 -166 q 287 -146 353 -146 l 268 -146 l 319 0 l 396 0 l 374 -63 q 493 -93 454 -64 q 533 -180 533 -123 q 484 -297 533 -256 q 344 -338 435 -338 q 257 -327 307 -338 q 144 -297 207 -317 "},"é":{"x_min":16,"x_max":771,"ha":846,"o":"m 268 452 l 537 452 q 538 462 537 455 q 539 472 539 469 q 509 570 539 536 q 425 605 479 605 q 321 564 362 605 q 268 452 279 523 m 483 221 l 734 221 q 600 45 701 111 q 365 -21 500 -21 q 109 73 202 -21 q 16 330 16 168 q 132 638 16 515 q 426 762 248 762 q 680 670 590 762 q 771 413 771 578 q 768 363 771 389 q 759 301 765 336 l 252 301 l 252 276 q 281 182 252 214 q 366 150 310 150 q 437 168 407 150 q 483 221 466 186 m 337 825 l 495 1076 l 707 1076 l 440 825 l 337 825 "},"B":{"x_min":-5,"x_max":924,"ha":977,"o":"m -5 0 l 205 999 l 607 999 q 843 935 763 999 q 924 747 924 871 q 877 596 924 659 q 743 507 830 533 q 834 431 802 482 q 866 309 866 380 q 837 178 866 239 q 757 76 808 117 q 629 17 705 35 q 409 0 553 0 l -5 0 m 368 616 l 481 616 q 632 642 589 616 q 675 730 675 668 q 648 793 675 774 q 559 813 621 813 l 504 813 l 409 813 l 368 616 m 279 195 l 392 195 q 566 227 514 195 q 618 331 618 259 q 587 409 618 383 q 497 436 557 436 l 428 436 l 330 436 l 279 195 "},"…":{"x_min":0,"x_max":1230,"ha":1389,"o":"m 0 0 l 51 241 l 303 241 l 251 0 l 0 0 m 463 0 l 514 241 l 766 241 l 714 0 l 463 0 m 927 0 l 978 241 l 1230 241 l 1178 0 l 927 0 "},"H":{"x_min":-5,"x_max":1066,"ha":1061,"o":"m -5 0 l 205 999 l 462 999 l 386 637 l 732 637 l 808 999 l 1066 999 l 854 0 l 597 0 l 686 421 l 340 421 l 251 0 l -5 0 "},"î":{"x_min":-21,"x_max":485,"ha":415,"o":"m -21 0 l 136 737 l 376 737 l 219 0 l -21 0 m 485 825 l 388 825 l 303 959 l 152 825 l 50 825 l 226 1076 l 398 1076 l 485 825 "},"−":{"x_min":172,"x_max":984,"ha":1157,"o":"m 172 494 l 984 494 l 984 335 l 172 335 l 172 494 "},"≠":{"x_min":172,"x_max":984,"ha":1157,"o":"m 809 848 l 923 755 l 831 642 l 984 642 l 984 492 l 728 492 l 606 338 l 984 338 l 984 187 l 506 187 l 340 -21 l 224 71 l 316 187 l 172 187 l 172 338 l 416 338 l 540 492 l 172 492 l 172 642 l 642 642 l 809 848 "},"¥":{"x_min":-10,"x_max":966,"ha":900,"o":"m 238 0 l 316 360 l -10 360 l 9 455 l 290 455 l 251 548 l 30 548 l 48 642 l 213 642 l 86 958 l 343 958 l 455 621 q 462 591 460 606 q 465 558 465 575 l 465 548 q 478 599 471 576 q 495 639 486 623 l 690 958 l 966 958 l 751 642 l 913 642 l 892 548 l 687 548 l 623 455 l 873 455 l 852 360 l 560 360 l 484 0 l 238 0 "},"U":{"x_min":69,"x_max":1052,"ha":1048,"o":"m 198 999 l 449 999 l 342 487 q 325 387 331 435 q 319 317 319 340 q 358 216 319 253 q 467 180 397 180 q 599 233 553 180 q 680 450 645 286 l 795 999 l 1052 999 l 956 547 q 948 508 953 534 q 831 138 888 218 q 680 14 774 57 q 463 -28 586 -28 q 173 61 277 -28 q 69 311 69 150 q 111 583 69 383 l 115 604 l 198 999 "},"Ñ":{"x_min":-5,"x_max":1073,"ha":1065,"o":"m -5 0 l 205 999 l 460 999 l 689 343 l 830 999 l 1073 999 l 860 0 l 607 0 l 371 655 l 232 0 l -5 0 m 915 1315 q 853 1182 891 1224 q 755 1140 814 1140 q 727 1142 742 1140 q 695 1151 713 1145 l 652 1164 q 630 1169 641 1167 q 609 1171 620 1171 q 566 1154 584 1171 q 541 1108 548 1138 l 461 1108 q 521 1240 482 1196 q 620 1284 561 1284 q 651 1281 635 1284 q 683 1274 666 1279 l 725 1260 q 747 1254 736 1256 q 763 1253 757 1253 q 806 1267 791 1253 q 833 1315 822 1281 l 915 1315 "},"F":{"x_min":-5,"x_max":852,"ha":827,"o":"m -5 0 l 205 999 l 852 999 l 809 794 l 416 794 l 374 593 l 737 593 l 695 389 l 329 389 l 247 0 l -5 0 "},"*":{"x_min":81,"x_max":689,"ha":694,"o":"m 384 579 l 268 408 l 136 501 l 269 663 l 81 715 l 129 867 l 310 803 l 310 999 l 460 999 l 460 803 l 640 867 l 689 715 l 499 663 l 633 501 l 501 408 l 384 579 "},"†":{"x_min":46,"x_max":708,"ha":694,"o":"m 261 568 l 46 568 l 76 714 l 291 714 l 352 999 l 547 999 l 487 714 l 708 714 l 676 568 l 455 568 l 304 -144 l 109 -144 l 261 568 "},"∕":{"x_min":-232,"x_max":467,"ha":232,"o":"m -232 0 l 343 985 l 467 985 l -108 0 l -232 0 "},"°":{"x_min":18,"x_max":441,"ha":457,"o":"m 230 896 q 149 862 182 896 q 116 783 116 829 q 149 702 116 735 q 230 669 182 669 q 309 702 276 669 q 343 783 343 736 q 309 862 343 829 q 230 896 276 896 m 229 994 q 379 932 317 994 q 441 782 441 870 q 378 633 441 695 q 228 571 316 571 q 79 632 140 571 q 18 782 18 694 q 79 932 18 871 q 229 994 141 994 "},"å":{"x_min":-16,"x_max":731,"ha":823,"o":"m 470 1046 q 417 1024 439 1046 q 396 974 396 1003 q 417 921 396 942 q 470 900 439 900 q 520 921 499 900 q 542 974 542 943 q 520 1024 542 1003 q 470 1046 498 1046 m 292 973 q 343 1098 292 1046 q 469 1150 395 1150 q 594 1098 542 1150 q 646 973 646 1046 q 594 847 646 899 q 469 796 542 796 q 343 847 394 796 q 292 973 292 898 m 467 351 q 353 323 427 336 q 222 221 222 299 q 245 164 222 186 q 305 142 268 142 q 411 187 375 142 q 467 351 447 232 m 70 535 q 184 707 97 650 q 417 765 272 765 q 648 703 565 765 q 731 533 731 642 q 729 499 731 517 q 724 463 727 482 l 654 124 q 651 100 652 112 q 650 76 650 89 q 655 45 650 57 q 669 23 659 33 l 669 0 l 435 0 l 435 76 q 330 6 389 30 q 206 -17 272 -17 q 45 43 106 -17 q -16 203 -16 103 q 52 372 -16 312 q 265 450 121 433 q 347 458 295 454 q 498 538 498 473 q 473 587 498 568 q 409 606 448 606 q 336 589 362 606 q 298 535 310 572 l 70 535 "},"0":{"x_min":28,"x_max":792,"ha":819,"o":"m 792 620 q 760 361 792 484 q 669 144 728 238 q 539 17 616 60 q 363 -26 462 -26 q 114 69 201 -26 q 28 340 28 164 q 60 595 28 470 q 147 809 92 720 q 279 938 201 894 q 457 983 357 983 q 705 888 618 983 q 792 620 792 794 m 557 674 q 532 773 557 739 q 460 807 507 807 q 390 776 420 807 q 335 682 360 746 q 283 492 303 601 q 264 286 264 382 q 289 187 264 221 q 360 154 314 154 q 429 183 400 154 q 485 280 458 213 q 536 471 516 362 q 557 674 557 580 "},"":{"x_min":77,"x_max":1021,"ha":1097,"o":"m 567 824 q 566 834 566 828 q 565 849 565 839 q 630 1005 565 934 q 790 1094 694 1077 q 791 1079 791 1087 q 791 1052 791 1070 q 721 893 791 963 q 583 823 651 823 l 578 823 q 573 824 576 823 q 567 824 570 824 m 1021 273 q 881 40 943 105 q 743 -24 820 -24 q 654 -1 709 -24 q 571 20 599 20 q 482 -1 540 20 q 396 -24 424 -24 q 309 5 353 -24 q 221 95 265 35 q 114 295 152 190 q 77 499 77 401 q 161 741 77 648 q 380 835 246 835 q 485 811 426 835 q 570 788 544 788 q 652 812 593 788 q 755 836 711 836 q 890 809 830 836 q 999 725 949 782 q 896 626 930 680 q 863 502 863 571 q 903 366 863 425 q 1021 273 944 307 "},"”":{"x_min":104,"x_max":728,"ha":692,"o":"m 696 860 q 601 639 659 697 q 424 582 543 582 l 415 582 l 433 664 q 521 694 492 668 q 563 785 549 721 l 446 785 l 494 999 l 728 999 l 696 860 m 384 860 q 290 639 348 697 q 113 582 231 582 l 104 582 l 120 664 q 210 694 181 668 q 252 785 239 720 l 135 785 l 182 999 l 416 999 l 384 860 "},"ö":{"x_min":12,"x_max":826,"ha":899,"o":"m 451 585 q 309 506 365 585 q 253 313 253 427 q 287 194 253 236 q 385 152 322 152 q 527 231 470 152 q 585 432 585 311 q 549 544 585 504 q 451 585 514 585 m 12 316 q 135 640 12 516 q 455 765 258 765 q 726 671 626 765 q 826 416 826 577 q 701 96 826 221 q 380 -28 577 -28 q 111 64 210 -28 q 12 316 12 157 m 540 859 l 578 1042 l 748 1042 l 709 859 l 540 859 m 295 859 l 334 1042 l 503 1042 l 463 859 l 295 859 "},"Õ":{"x_min":54,"x_max":1060,"ha":1112,"o":"m 598 816 q 389 698 471 816 q 308 405 308 580 q 361 236 308 296 q 512 176 415 176 q 723 293 639 176 q 807 589 807 411 q 753 758 807 700 q 598 816 699 816 m 54 426 q 208 855 54 687 q 606 1023 363 1023 q 938 902 817 1023 q 1060 570 1060 781 q 904 140 1060 309 q 509 -29 749 -29 q 176 93 298 -29 q 54 426 54 215 m 907 1315 q 845 1182 883 1224 q 747 1140 806 1140 q 719 1142 734 1140 q 687 1151 705 1145 l 644 1164 q 622 1169 633 1167 q 601 1171 612 1171 q 558 1154 576 1171 q 533 1108 540 1138 l 453 1108 q 513 1240 474 1196 q 612 1284 553 1284 q 643 1281 627 1284 q 675 1274 658 1279 l 717 1260 q 739 1254 728 1256 q 755 1253 749 1253 q 798 1267 783 1253 q 825 1315 814 1281 l 907 1315 "},"ć":{"x_min":18,"x_max":755,"ha":829,"o":"m 489 272 l 732 272 q 610 58 715 140 q 356 -24 506 -24 q 104 65 190 -24 q 18 327 18 155 q 131 638 18 517 q 424 760 245 760 q 665 681 577 760 q 755 464 752 602 l 515 464 q 487 550 513 519 q 414 582 460 582 q 303 501 348 582 q 259 299 259 420 q 286 196 259 231 q 367 161 314 161 q 444 190 411 161 q 489 272 476 219 m 322 825 l 480 1076 l 692 1076 l 425 825 l 322 825 "},"þ":{"x_min":-83,"x_max":828,"ha":903,"o":"m 480 577 q 345 502 397 577 q 292 313 292 428 q 324 211 292 246 q 414 176 355 176 q 533 252 484 176 q 583 440 583 329 q 556 541 583 506 q 480 577 529 577 m 191 999 l 418 999 l 343 642 q 446 733 388 702 q 572 764 505 764 q 760 683 693 764 q 828 458 828 603 q 722 112 828 249 q 457 -24 616 -24 q 327 11 382 -24 q 244 116 273 47 l 156 -296 l -83 -296 l 191 999 "},"]":{"x_min":-155,"x_max":524,"ha":568,"o":"m -155 -240 l -121 -83 l 70 -83 l 268 842 l 73 842 l 107 999 l 524 999 l 259 -240 l -155 -240 "},"8":{"x_min":25,"x_max":785,"ha":819,"o":"m 338 683 q 365 607 338 635 q 439 580 392 580 q 526 615 492 580 q 560 706 560 651 q 531 782 560 754 q 456 811 503 811 q 371 774 405 811 q 338 683 338 737 m 254 269 q 284 185 254 217 q 366 154 315 154 q 459 196 423 154 q 496 304 496 238 q 465 387 496 356 q 383 419 434 419 q 290 376 326 419 q 254 269 254 334 m 230 536 q 147 621 174 576 q 121 723 121 667 q 212 910 121 836 q 444 985 303 985 q 691 910 597 985 q 785 719 785 836 q 739 582 785 640 q 603 488 693 523 q 693 393 664 445 q 723 276 723 341 q 625 57 723 141 q 369 -26 528 -26 q 120 56 215 -26 q 25 270 25 138 q 77 434 25 367 q 230 536 129 502 "},"R":{"x_min":-5,"x_max":963,"ha":1000,"o":"m -5 0 l 208 999 l 569 999 q 867 932 771 999 q 963 726 963 866 q 912 556 963 625 q 761 451 861 487 q 828 394 808 427 q 848 307 848 361 q 841 200 848 266 q 835 109 835 134 q 845 64 835 81 q 877 35 854 48 l 877 0 l 593 0 q 586 36 588 17 q 584 82 584 56 q 591 184 584 120 q 599 273 599 248 q 565 354 599 331 q 442 378 531 378 l 323 378 l 243 0 l -5 0 m 366 574 l 524 574 q 671 607 625 574 q 717 715 717 641 q 682 788 717 766 q 557 810 647 810 l 415 810 l 366 574 "},"o":{"x_min":12,"x_max":826,"ha":899,"o":"m 451 585 q 309 506 365 585 q 253 313 253 427 q 287 194 253 236 q 385 152 322 152 q 527 231 470 152 q 585 432 585 311 q 549 544 585 504 q 451 585 514 585 m 12 316 q 135 640 12 516 q 455 765 258 765 q 726 671 626 765 q 826 416 826 577 q 701 96 826 221 q 380 -28 577 -28 q 111 64 210 -28 q 12 316 12 157 "},"5":{"x_min":24,"x_max":767,"ha":819,"o":"m 24 267 l 251 267 q 281 184 254 213 q 355 155 308 155 q 461 204 423 155 q 499 342 499 254 q 467 440 499 403 q 382 477 435 477 q 320 462 347 477 q 277 421 293 447 l 69 436 l 179 958 l 767 958 l 729 784 l 322 784 l 286 610 q 365 641 327 631 q 441 651 402 651 q 656 569 572 651 q 741 362 741 487 q 636 80 741 185 q 355 -24 532 -24 q 116 50 201 -24 q 24 267 31 125 "},"õ":{"x_min":12,"x_max":826,"ha":899,"o":"m 451 585 q 309 506 365 585 q 253 313 253 427 q 287 194 253 236 q 385 152 322 152 q 527 231 470 152 q 585 432 585 311 q 549 544 585 504 q 451 585 514 585 m 12 316 q 135 640 12 516 q 455 765 258 765 q 726 671 626 765 q 826 416 826 577 q 701 96 826 221 q 380 -28 577 -28 q 111 64 210 -28 q 12 316 12 157 m 748 1054 q 686 921 724 963 q 588 879 647 879 q 560 881 575 879 q 528 890 546 884 l 485 903 q 463 908 474 906 q 442 910 453 910 q 399 893 417 910 q 374 847 381 877 l 294 847 q 354 979 315 935 q 453 1023 394 1023 q 484 1020 468 1023 q 516 1013 499 1018 l 558 999 q 580 993 569 995 q 596 992 590 992 q 639 1006 624 992 q 666 1054 655 1020 l 748 1054 "},",":{"x_min":-53,"x_max":286,"ha":410,"o":"m 251 84 q 149 -167 210 -103 q -33 -231 88 -231 l -53 -231 l -35 -142 q 62 -100 28 -133 q 108 0 96 -66 l -19 0 l 33 241 l 286 241 l 251 84 "},"d":{"x_min":10,"x_max":915,"ha":897,"o":"m 364 162 q 494 237 441 162 q 546 423 546 313 q 515 525 546 488 q 430 562 484 562 q 305 486 356 562 q 255 297 255 410 q 283 196 255 231 q 364 162 311 162 m 915 999 l 702 0 l 474 0 l 495 95 q 393 5 451 36 q 265 -25 335 -25 q 77 55 145 -25 q 10 280 10 136 q 116 625 10 488 q 382 762 222 762 q 509 724 456 762 q 592 613 562 687 l 674 999 l 915 999 "},"\"":{"x_min":51,"x_max":431,"ha":484,"o":"m 282 975 l 431 975 l 431 595 l 282 595 l 282 975 m 51 975 l 200 975 l 200 595 l 51 595 l 51 975 "},"˙":{"x_min":330,"x_max":548,"ha":694,"o":"m 330 856 l 370 1047 l 548 1047 l 508 856 l 330 856 "},"ê":{"x_min":16,"x_max":771,"ha":846,"o":"m 268 452 l 537 452 q 538 462 537 455 q 539 472 539 469 q 509 570 539 536 q 425 605 479 605 q 321 564 362 605 q 268 452 279 523 m 483 221 l 734 221 q 600 45 701 111 q 365 -21 500 -21 q 109 73 202 -21 q 16 330 16 168 q 132 638 16 515 q 426 762 248 762 q 680 670 590 762 q 771 413 771 578 q 768 363 771 389 q 759 301 765 336 l 252 301 l 252 276 q 281 182 252 214 q 366 150 310 150 q 437 168 407 150 q 483 221 466 186 m 676 825 l 579 825 l 494 959 l 343 825 l 241 825 l 417 1076 l 589 1076 l 676 825 "},"„":{"x_min":-54,"x_max":571,"ha":692,"o":"m 539 75 q 444 -143 502 -86 q 267 -201 386 -201 l 258 -201 l 276 -120 q 364 -90 335 -116 q 406 0 392 -64 l 289 0 l 337 214 l 571 214 l 539 75 m 227 75 q 132 -143 190 -86 q -44 -201 74 -201 l -54 -201 l -35 -120 q 53 -90 24 -116 q 94 0 81 -64 l -22 0 l 25 214 l 259 214 l 227 75 "},"Â":{"x_min":-92,"x_max":887,"ha":949,"o":"m 573 376 l 514 764 l 342 376 l 573 376 m -92 0 l 407 999 l 684 999 l 887 0 l 628 0 l 601 173 l 250 173 l 176 0 l -92 0 m 775 1086 l 678 1086 l 593 1220 l 442 1086 l 340 1086 l 516 1337 l 688 1337 l 775 1086 "},"Í":{"x_min":-7,"x_max":601,"ha":460,"o":"m -7 0 l 209 999 l 462 999 l 249 0 l -7 0 m 231 1086 l 389 1337 l 601 1337 l 334 1086 l 231 1086 "},"´":{"x_min":285,"x_max":655,"ha":694,"o":"m 285 825 l 443 1076 l 655 1076 l 388 825 l 285 825 "},"Ú":{"x_min":69,"x_max":1052,"ha":1048,"o":"m 198 999 l 449 999 l 342 487 q 325 387 331 435 q 319 317 319 340 q 358 216 319 253 q 467 180 397 180 q 599 233 553 180 q 680 450 645 286 l 795 999 l 1052 999 l 956 547 q 948 508 953 534 q 831 138 888 218 q 680 14 774 57 q 463 -28 586 -28 q 173 61 277 -28 q 69 311 69 150 q 111 583 69 383 l 115 604 l 198 999 m 516 1086 l 674 1337 l 886 1337 l 619 1086 l 516 1086 "},"Ý":{"x_min":54,"x_max":971,"ha":871,"o":"m 213 0 l 296 392 l 54 999 l 321 999 l 439 642 q 446 614 444 630 q 448 577 448 598 q 459 623 453 602 q 473 655 466 643 l 684 999 l 971 999 l 545 366 l 469 0 l 213 0 m 436 1086 l 594 1337 l 806 1337 l 539 1086 l 436 1086 "},"Ω":{"x_min":30.546875,"x_max":1084.078125,"ha":1116,"o":"m 858 208 l 1084 208 l 1084 0 l 653 0 l 653 238 q 749 371 715 294 q 783 539 783 449 q 721 734 783 662 q 556 807 660 807 q 391 734 452 807 q 330 537 330 661 q 363 370 330 448 q 461 238 397 292 l 461 0 l 30 0 l 30 208 l 255 208 q 120 363 166 272 q 74 566 74 455 q 206 898 74 772 q 556 1025 339 1025 q 907 899 775 1025 q 1040 566 1040 773 q 993 363 1040 455 q 858 208 947 272 "},"Ö":{"x_min":54,"x_max":1060,"ha":1112,"o":"m 598 816 q 389 698 471 816 q 308 405 308 580 q 361 236 308 296 q 512 176 415 176 q 723 293 639 176 q 807 589 807 411 q 753 758 807 700 q 598 816 699 816 m 54 426 q 208 855 54 687 q 606 1023 363 1023 q 938 902 817 1023 q 1060 570 1060 781 q 904 140 1060 309 q 509 -29 749 -29 q 176 93 298 -29 q 54 426 54 215 m 699 1120 l 737 1303 l 907 1303 l 868 1120 l 699 1120 m 454 1120 l 493 1303 l 662 1303 l 622 1120 l 454 1120 "},"z":{"x_min":-49,"x_max":704,"ha":724,"o":"m -49 0 l -11 176 l 393 563 l 40 563 l 78 737 l 704 737 l 665 557 l 282 180 l 647 180 l 608 0 l -49 0 "},"™":{"x_min":128,"x_max":996,"ha":1157,"o":"m 541 993 l 692 993 l 768 787 l 846 993 l 996 993 l 996 619 l 891 619 l 891 883 l 792 619 l 748 619 l 646 883 l 646 619 l 541 619 l 541 993 m 128 993 l 468 993 l 468 907 l 357 907 l 357 619 l 239 619 l 239 907 l 128 907 l 128 993 "},"ã":{"x_min":-16,"x_max":731,"ha":823,"o":"m 467 351 q 353 323 427 336 q 222 221 222 299 q 245 164 222 186 q 306 142 269 142 q 411 186 375 142 q 467 351 447 231 m 435 76 q 329 6 387 30 q 206 -17 271 -17 q 45 43 106 -17 q -16 203 -16 103 q 52 372 -16 312 q 265 450 121 433 q 347 458 295 454 q 498 538 498 473 q 473 587 498 568 q 409 606 448 606 q 335 589 362 606 q 297 535 309 572 l 70 535 q 184 707 97 650 q 417 765 271 765 q 648 703 565 765 q 731 533 731 642 q 729 494 731 511 q 724 463 727 477 l 655 124 q 652 101 653 114 q 651 76 651 89 q 655 45 651 57 q 670 23 659 33 l 670 0 l 435 0 l 435 76 m 712 1054 q 650 921 688 963 q 552 879 611 879 q 524 881 539 879 q 492 890 510 884 l 449 903 q 427 908 438 906 q 406 910 417 910 q 363 893 381 910 q 338 847 345 877 l 258 847 q 318 979 279 935 q 417 1023 358 1023 q 448 1020 432 1023 q 480 1013 463 1018 l 522 999 q 544 993 533 995 q 560 992 554 992 q 603 1006 588 992 q 630 1054 619 1020 l 712 1054 "},"æ":{"x_min":-14,"x_max":1208,"ha":1286,"o":"m 709 452 l 975 452 q 976 463 975 456 q 977 475 977 471 q 949 573 977 540 q 867 606 922 606 q 763 566 803 606 q 709 452 723 527 m 923 220 l 1173 220 q 1038 44 1139 110 q 806 -21 938 -21 q 644 12 713 -21 q 529 112 574 46 q 385 10 458 42 q 224 -21 312 -21 q 50 40 115 -21 q -14 202 -14 101 q 55 373 -14 311 q 264 452 124 435 q 357 460 299 456 q 499 536 499 472 q 473 587 499 568 q 405 606 448 606 q 336 588 363 606 q 299 535 310 570 l 71 535 q 186 707 99 649 q 413 765 272 765 q 555 744 499 765 q 643 677 610 723 q 748 743 692 721 q 870 765 805 765 q 1116 674 1025 765 q 1208 431 1208 584 q 1205 368 1208 400 q 1197 301 1203 336 l 692 301 q 691 290 691 296 q 691 273 691 284 q 719 177 691 212 q 799 142 748 142 q 869 162 836 142 q 923 220 902 183 m 467 351 q 350 322 426 335 q 222 221 222 299 q 245 164 222 186 q 306 142 268 142 q 411 187 375 142 q 467 351 447 232 "},"É":{"x_min":0,"x_max":908,"ha":895,"o":"m 0 0 l 213 999 l 908 999 l 866 799 l 423 799 l 384 616 l 790 616 l 749 419 l 342 419 l 296 200 l 764 200 l 721 0 l 0 0 m 448 1086 l 606 1337 l 818 1337 l 551 1086 l 448 1086 "},"~":{"x_min":121,"x_max":1038,"ha":1157,"o":"m 1038 555 l 1038 383 q 906 313 969 336 q 782 290 843 290 q 721 295 751 290 q 665 309 692 300 q 639 318 656 312 q 380 379 466 379 q 261 353 323 379 q 121 271 199 328 l 121 444 q 261 517 196 493 q 383 542 326 542 q 469 533 426 542 q 584 502 512 525 q 618 491 595 499 q 786 453 726 453 q 904 477 843 453 q 1038 555 964 501 "},"³":{"x_min":7,"x_max":520,"ha":541,"o":"m 7 561 l 155 561 q 154 555 154 558 q 154 547 154 552 q 173 490 154 510 q 229 471 193 471 q 293 497 268 471 q 318 567 318 524 q 294 616 318 599 q 224 634 271 632 l 246 726 l 251 726 q 339 746 310 726 q 369 809 369 766 q 349 853 369 836 q 299 870 330 870 q 247 851 267 870 q 220 799 226 833 l 76 799 q 149 925 86 878 q 306 973 211 973 q 460 928 401 973 q 520 814 520 884 q 486 724 520 760 q 385 668 452 687 q 453 618 430 649 q 477 543 477 586 q 410 416 477 464 q 233 369 344 369 q 66 415 126 369 q 7 547 7 462 l 7 561 "},"¡":{"x_min":14,"x_max":475,"ha":473,"o":"m 355 655 l 275 0 l 14 0 l 221 655 l 355 655 m 475 999 l 424 756 l 173 756 l 224 999 l 475 999 "},"[":{"x_min":-5,"x_max":674,"ha":568,"o":"m 674 997 l 640 840 l 445 840 l 250 -85 l 443 -85 l 411 -242 l -5 -242 l 257 997 l 674 997 "},"%":{"x_min":39,"x_max":1256,"ha":1295,"o":"m 868 248 q 900 169 868 202 q 980 137 933 137 q 1058 169 1026 137 q 1091 248 1091 202 q 1058 327 1091 294 q 980 360 1026 360 q 900 327 932 360 q 868 248 868 294 m 703 248 q 783 443 703 362 q 979 525 864 525 q 1175 443 1094 525 q 1256 248 1256 362 q 1175 53 1256 134 q 979 -28 1094 -28 q 783 53 864 -28 q 703 248 703 134 m 300 -28 l 872 985 l 995 985 l 424 -28 l 300 -28 m 204 707 q 236 629 204 662 q 316 597 269 597 q 394 629 362 597 q 427 707 427 662 q 394 787 427 754 q 316 820 362 820 q 236 787 268 820 q 204 707 204 754 m 39 708 q 119 903 39 822 q 315 985 200 985 q 511 903 430 985 q 592 708 592 822 q 511 513 592 594 q 315 432 430 432 q 119 513 200 432 q 39 708 39 594 "},"P":{"x_min":-5,"x_max":944,"ha":953,"o":"m 365 556 l 466 556 q 643 590 591 556 q 695 702 695 624 q 659 784 695 760 q 505 808 623 808 l 419 808 l 365 556 m -5 0 l 211 999 l 536 999 q 849 929 754 999 q 944 705 944 860 q 911 551 944 623 q 822 436 879 480 q 690 375 769 394 q 471 357 612 357 l 323 357 l 247 0 l -5 0 "},"∏":{"x_min":98,"x_max":1012,"ha":1116,"o":"m 98 999 l 1012 999 l 1012 -266 l 741 -266 l 741 772 l 369 772 l 369 -266 l 98 -266 l 98 999 "},"_":{"x_min":0,"x_max":694,"ha":694,"o":"m 0 -166 l 694 -166 l 694 -328 l 0 -328 l 0 -166 "},"ñ":{"x_min":-22,"x_max":806,"ha":895,"o":"m -22 0 l 135 737 l 358 737 l 336 633 q 459 727 397 696 q 590 758 521 758 q 750 703 694 758 q 806 549 806 649 q 801 483 806 519 q 787 408 796 447 l 701 0 l 461 0 l 543 389 q 553 446 549 420 q 557 483 557 472 q 536 546 557 525 q 474 568 516 568 q 364 519 410 568 q 299 384 318 471 l 218 0 l -22 0 m 766 1054 q 704 921 742 963 q 606 879 665 879 q 578 881 593 879 q 546 890 564 884 l 503 903 q 481 908 492 906 q 460 910 471 910 q 417 893 435 910 q 392 847 399 877 l 312 847 q 372 979 333 935 q 471 1023 412 1023 q 502 1020 486 1023 q 534 1013 517 1018 l 576 999 q 598 993 587 995 q 614 992 608 992 q 657 1006 642 992 q 684 1054 673 1020 l 766 1054 "},"‚":{"x_min":-54,"x_max":259,"ha":378,"o":"m 227 75 q 132 -143 190 -86 q -44 -201 74 -201 l -54 -201 l -35 -120 q 52 -90 24 -116 q 94 0 81 -64 l -22 0 l 25 214 l 259 214 l 227 75 "},"Æ":{"x_min":-113,"x_max":1318,"ha":1310,"o":"m 581 371 l 675 810 l 606 810 l 357 371 l 581 371 m -113 0 l 487 999 l 1318 999 l 1275 796 l 901 796 l 863 623 l 1220 623 l 1177 424 l 821 424 l 774 200 l 1188 200 l 1145 0 l 502 0 l 540 172 l 242 172 l 147 0 l -113 0 "},"₣":{"x_min":-5,"x_max":1437,"ha":1430,"o":"m -5 0 l 205 999 l 852 999 l 809 794 l 416 794 l 374 593 l 737 593 l 695 389 l 329 389 l 247 0 l -5 0 m 807 0 l 964 737 l 1186 737 l 1150 563 q 1256 710 1193 664 q 1414 757 1320 757 q 1425 756 1420 757 q 1437 755 1430 756 l 1386 514 q 1353 524 1370 520 q 1318 527 1335 527 q 1182 470 1230 527 q 1099 242 1135 413 l 1048 0 l 807 0 "},"ğ":{"x_min":-35,"x_max":855,"ha":896,"o":"m 436 561 q 309 488 362 561 q 257 316 257 416 q 287 221 257 255 q 371 187 317 187 q 496 260 445 187 q 547 434 547 334 q 517 527 547 493 q 436 561 487 561 m 620 737 l 855 737 l 719 105 q 578 -214 669 -131 q 307 -297 487 -297 q 68 -235 157 -297 q -35 -61 -20 -173 l 195 -61 q 225 -112 199 -94 q 299 -131 252 -131 q 411 -83 374 -131 q 470 92 449 -36 q 375 26 425 48 q 269 4 325 4 q 83 85 152 4 q 14 307 14 167 q 118 625 14 496 q 374 754 223 754 q 506 717 449 754 q 595 608 562 680 l 620 737 m 350 1054 l 438 1054 l 438 1047 q 462 981 438 1003 q 537 960 486 960 q 628 982 592 960 q 687 1054 665 1005 l 779 1054 q 685 898 749 951 q 525 846 621 846 q 392 891 436 846 q 348 1024 348 936 q 349 1039 348 1030 q 350 1054 350 1049 "},"ª":{"x_min":-11,"x_max":548,"ha":618,"o":"m 350 727 q 265 707 320 716 q 167 635 167 690 q 184 595 167 611 q 230 580 202 580 q 308 611 281 580 q 350 727 335 643 m 327 536 q 247 486 291 503 q 154 470 203 470 q 34 512 79 470 q -11 623 -11 554 q 40 742 -11 700 q 198 797 91 785 q 263 803 223 799 q 373 858 373 812 q 354 891 373 878 q 306 905 335 905 q 252 893 271 905 q 223 857 233 882 l 52 857 q 139 977 73 937 q 313 1018 204 1018 q 486 974 424 1018 q 548 855 548 931 q 546 824 548 835 q 543 805 545 814 l 491 567 q 488 550 489 557 q 488 536 488 542 q 491 514 488 522 q 501 498 494 506 l 501 482 l 327 482 l 327 536 "},"Œ":{"x_min":56,"x_max":1531,"ha":1521,"o":"m 671 0 l 686 70 q 567 1 629 24 q 435 -22 504 -22 q 160 101 265 -22 q 56 426 56 224 q 208 853 56 684 q 593 1023 361 1023 q 747 999 680 1023 q 868 924 813 975 l 882 999 l 1531 999 l 1487 799 l 1046 799 l 1007 616 l 1413 616 l 1370 419 l 965 419 l 920 200 l 1386 200 l 1343 0 l 671 0 m 696 265 l 799 745 q 718 800 766 781 q 612 819 670 819 q 389 702 475 819 q 303 405 303 586 q 356 239 303 302 q 498 177 410 177 q 608 200 555 177 q 696 265 661 224 "},"T":{"x_min":54,"x_max":901,"ha":796,"o":"m 163 0 l 331 794 l 54 794 l 96 999 l 901 999 l 858 794 l 588 794 l 418 0 l 163 0 "},"š":{"x_min":-2,"x_max":725,"ha":790,"o":"m -2 236 l 212 236 q 254 156 220 183 q 346 129 288 129 q 423 146 393 129 q 453 192 453 164 q 321 289 453 235 q 265 312 285 304 q 93 415 135 369 q 52 531 52 462 q 141 700 52 637 q 382 764 230 764 q 621 703 534 764 q 717 531 708 642 l 504 531 q 461 597 490 577 q 380 617 432 617 q 311 601 337 617 q 285 560 285 585 q 398 481 285 525 q 522 429 473 451 q 647 341 606 391 q 688 225 688 291 q 596 45 688 114 q 355 -24 504 -24 q 101 44 195 -24 q -2 236 7 113 m 290 1076 l 386 1076 l 471 939 l 621 1076 l 725 1076 l 547 825 l 374 825 l 290 1076 "},"Þ":{"x_min":-5,"x_max":903,"ha":964,"o":"m 379 629 l 324 378 l 426 378 q 604 412 552 378 q 656 524 656 446 q 620 605 656 582 q 465 629 584 629 l 379 629 m 210 999 l 459 999 l 421 819 l 497 819 q 809 749 715 819 q 903 526 903 680 q 871 372 903 443 q 782 256 839 301 q 650 196 728 214 q 430 179 571 179 l 283 179 l 247 0 l -5 0 l 210 999 "},"j":{"x_min":-174,"x_max":433,"ha":415,"o":"m 152 818 l 191 1006 l 433 1006 l 394 818 l 152 818 m 135 737 l 377 737 l 214 -25 q 116 -238 181 -177 q -72 -300 50 -300 q -114 -297 -91 -300 q -174 -290 -137 -295 l -142 -139 l -135 -139 q -61 -112 -84 -139 q -15 25 -38 -86 l 135 737 "},"1":{"x_min":132,"x_max":681,"ha":819,"o":"m 229 0 l 377 696 q 259 678 319 684 q 132 670 199 672 l 162 815 q 364 875 290 835 q 478 985 439 915 l 681 985 l 470 0 l 229 0 "},"›":{"x_min":-16,"x_max":276,"ha":354,"o":"m 95 633 l 276 430 l 242 276 l -16 104 l 24 293 l 144 371 l 60 464 l 95 633 "},"<":{"x_min":179,"x_max":978,"ha":1157,"o":"m 978 823 l 978 651 l 398 413 l 978 177 l 978 5 l 179 334 l 179 492 l 978 823 "},"t":{"x_min":27.578125,"x_max":520,"ha":515,"o":"m 400 165 l 363 0 q 296 -7 323 -5 q 247 -10 269 -10 q 89 32 142 -10 q 37 156 37 74 q 40 201 37 175 q 49 254 43 227 l 123 597 l 27 597 l 58 737 l 153 737 l 199 957 l 442 957 l 397 737 l 520 737 l 491 597 l 366 597 l 301 294 q 294 246 297 267 q 291 212 291 224 q 307 173 291 187 q 355 160 324 160 q 391 164 364 160 q 400 165 397 164 "},"¬":{"x_min":172,"x_max":984,"ha":1157,"o":"m 172 587 l 984 587 l 984 247 l 829 247 l 829 433 l 172 433 l 172 587 "},"ù":{"x_min":20,"x_max":847,"ha":895,"o":"m 847 737 l 690 0 l 465 0 l 489 105 q 366 11 429 42 q 234 -20 303 -20 q 75 34 131 -20 q 20 188 20 88 q 24 253 20 217 q 37 328 28 288 l 123 737 l 364 737 l 282 348 q 271 291 275 317 q 268 253 268 264 q 288 190 268 211 q 350 169 308 169 q 460 217 414 169 q 524 353 506 266 l 607 737 l 847 737 m 329 1076 l 511 1076 l 623 825 l 528 825 l 329 1076 "},"ï":{"x_min":-21,"x_max":527,"ha":415,"o":"m -21 0 l 136 737 l 376 737 l 219 0 l -21 0 m 319 859 l 357 1042 l 527 1042 l 488 859 l 319 859 m 74 859 l 113 1042 l 282 1042 l 242 859 l 74 859 "},"Ò":{"x_min":54,"x_max":1060,"ha":1112,"o":"m 598 816 q 389 698 471 816 q 308 405 308 580 q 361 236 308 296 q 512 176 415 176 q 723 293 639 176 q 807 589 807 411 q 753 758 807 700 q 598 816 699 816 m 54 426 q 208 855 54 687 q 606 1023 363 1023 q 938 902 817 1023 q 1060 570 1060 781 q 904 140 1060 309 q 509 -29 749 -29 q 176 93 298 -29 q 54 426 54 215 m 470 1337 l 652 1337 l 764 1086 l 669 1086 l 470 1337 "},"&":{"x_min":20,"x_max":925,"ha":991,"o":"m 470 654 q 561 709 533 680 q 589 776 589 738 q 566 838 589 815 q 504 861 544 861 q 441 838 465 861 q 418 780 418 816 q 431 721 418 752 q 470 654 444 690 m 500 195 l 371 428 q 273 358 304 395 q 242 272 242 320 q 276 180 242 217 q 363 144 310 144 q 431 157 395 144 q 500 195 466 170 m 849 0 l 615 0 l 589 47 q 471 -7 534 10 q 339 -26 409 -26 q 105 51 191 -26 q 20 261 20 128 q 90 453 20 366 q 286 586 161 540 q 239 689 254 642 q 224 779 224 736 q 301 947 224 880 q 497 1015 378 1015 q 698 950 622 1015 q 774 780 774 886 q 721 629 774 694 q 557 512 669 565 l 657 339 q 701 403 683 370 q 727 475 718 436 l 925 475 q 866 308 909 385 q 754 167 824 232 l 849 0 "},"":{"x_min":-32,"x_max":846,"ha":819,"o":"m 562 442 l 525 356 l 335 356 q 332 325 332 335 q 331 306 331 314 q 357 191 331 228 q 437 154 383 154 q 521 184 487 154 q 576 281 555 215 l 794 281 q 659 47 748 121 q 422 -26 569 -26 q 185 73 268 -26 q 100 356 101 172 l -32 356 l 6 442 l 104 442 q 109 488 106 465 q 116 534 112 511 l 10 534 l 50 620 l 136 620 q 175 726 152 675 q 230 820 199 776 q 368 942 289 901 q 548 983 448 983 q 763 901 680 983 q 846 689 846 820 l 846 687 l 630 687 l 630 697 q 607 780 630 753 q 538 807 585 807 q 443 757 484 807 q 380 620 402 708 l 642 620 l 603 534 l 360 534 q 356 513 358 523 q 352 492 354 502 q 348 474 350 483 q 344 442 347 464 l 562 442 "},"˝":{"x_min":256,"x_max":779,"ha":694,"o":"m 460 825 l 590 1076 l 779 1076 l 540 825 l 460 825 m 256 825 l 352 1076 l 537 1076 l 329 825 l 256 825 "},"I":{"x_min":-7,"x_max":462,"ha":460,"o":"m -7 0 l 209 999 l 462 999 l 249 0 l -7 0 "},"G":{"x_min":50,"x_max":1019,"ha":1093,"o":"m 1014 530 l 902 0 l 736 0 l 729 86 q 598 4 666 30 q 446 -22 529 -22 q 158 96 266 -22 q 50 411 50 215 q 205 852 50 678 q 601 1026 360 1026 q 896 932 783 1026 q 1019 681 1010 838 l 776 681 q 718 788 764 751 q 597 825 673 825 q 384 709 468 825 q 300 415 300 593 q 355 240 300 304 q 508 177 411 177 q 647 221 587 177 q 736 346 706 265 l 512 346 l 551 530 l 1014 530 "},"`":{"x_min":229,"x_max":523,"ha":694,"o":"m 229 1076 l 411 1076 l 523 825 l 428 825 l 229 1076 "},"·":{"x_min":79,"x_max":330,"ha":410,"o":"m 79 479 q 115 569 79 532 q 205 606 152 606 q 294 569 258 606 q 330 479 330 532 q 294 389 330 426 q 205 353 258 353 q 115 389 152 353 q 79 479 79 426 "},"¿":{"x_min":4,"x_max":729,"ha":829,"o":"m 575 675 q 536 542 568 594 q 396 422 504 491 q 367 404 387 416 q 241 253 241 326 q 273 180 241 208 q 357 152 306 152 q 460 192 420 152 q 506 306 499 233 l 729 306 q 617 62 714 151 q 364 -26 519 -26 q 100 51 197 -26 q 4 258 4 128 q 36 389 4 331 q 134 491 69 447 q 220 540 163 511 q 352 675 340 601 l 575 675 m 658 999 l 606 756 l 355 756 l 406 999 l 658 999 "},"ý":{"x_min":-33,"x_max":793,"ha":739,"o":"m -11 -113 q 27 -119 9 -117 q 59 -122 45 -122 q 124 -98 103 -122 q 144 -26 144 -75 q 142 1 144 -18 q 136 51 140 21 l 38 737 l 280 737 l 311 234 l 544 737 l 793 737 l 417 51 q 380 -19 405 26 q 69 -300 230 -300 q 23 -296 49 -300 q -33 -285 -1 -292 l -11 -113 m 307 825 l 465 1076 l 677 1076 l 410 825 l 307 825 "},"º":{"x_min":10,"x_max":620,"ha":673,"o":"m 339 892 q 233 836 275 892 q 191 701 191 781 q 217 618 191 647 q 290 589 243 589 q 397 644 354 589 q 441 784 441 700 q 414 863 441 835 q 339 892 387 892 m 10 704 q 102 930 10 843 q 342 1018 195 1018 q 545 952 470 1018 q 620 774 620 886 q 527 550 620 637 q 286 463 434 463 q 84 528 158 463 q 10 704 10 593 "},"∞":{"x_min":132,"x_max":1026,"ha":1157,"o":"m 648 381 q 717 312 677 335 q 807 289 757 289 q 906 323 868 289 q 945 411 945 358 q 910 498 945 463 q 823 532 875 532 q 734 498 774 532 q 648 381 693 463 m 509 446 q 441 514 480 491 q 350 537 401 537 q 251 503 289 537 q 213 415 213 469 q 247 329 213 363 q 334 295 282 295 q 424 330 382 295 q 509 446 465 366 m 580 300 q 480 169 534 212 q 360 127 426 127 q 199 209 266 127 q 132 413 132 291 q 191 619 132 540 q 345 699 250 699 q 458 660 406 699 q 577 525 510 622 q 679 657 625 614 q 797 700 732 700 q 959 618 892 700 q 1026 414 1026 536 q 966 206 1026 286 q 812 127 907 127 q 699 164 750 127 q 580 300 648 201 "},";":{"x_min":-35,"x_max":404,"ha":441,"o":"m 99 468 l 150 710 l 404 710 l 350 468 l 99 468 m 268 84 q 167 -167 228 -103 q -15 -231 106 -231 l -35 -231 l -17 -142 q 80 -100 47 -133 q 125 0 114 -66 l 0 0 l 51 241 l 302 241 l 268 84 "},"6":{"x_min":40,"x_max":799,"ha":819,"o":"m 265 273 q 296 181 265 215 q 381 148 327 148 q 490 201 449 148 q 532 343 532 255 q 500 437 532 403 q 413 471 468 471 q 305 417 345 471 q 265 273 265 364 m 319 586 q 403 617 362 607 q 483 628 443 628 q 681 549 606 628 q 757 343 757 471 q 654 76 757 178 q 383 -26 551 -26 q 129 73 219 -26 q 40 354 40 173 q 74 593 40 472 q 169 804 109 715 q 311 936 227 891 q 501 981 395 981 q 719 913 640 981 q 799 728 799 846 l 799 715 l 586 715 q 558 787 584 761 q 487 813 532 813 q 384 760 423 813 q 319 586 344 707 "},"n":{"x_min":-22,"x_max":806,"ha":895,"o":"m -22 0 l 135 737 l 358 737 l 336 633 q 459 727 397 696 q 590 758 521 758 q 750 703 694 758 q 806 549 806 649 q 801 483 806 519 q 787 408 796 447 l 701 0 l 461 0 l 543 389 q 553 446 549 420 q 557 483 557 472 q 536 546 557 525 q 474 568 516 568 q 364 519 410 568 q 299 384 318 471 l 218 0 l -22 0 "},"¤":{"x_min":-32,"x_max":846,"ha":819,"o":"m 562 442 l 525 356 l 335 356 q 332 325 332 335 q 331 306 331 314 q 357 191 331 228 q 437 154 383 154 q 521 184 487 154 q 576 281 555 215 l 794 281 q 659 47 748 121 q 422 -26 569 -26 q 185 73 268 -26 q 100 356 101 172 l -32 356 l 6 442 l 104 442 q 109 488 106 465 q 116 534 112 511 l 10 534 l 50 620 l 136 620 q 175 726 152 675 q 230 820 199 776 q 368 942 289 901 q 548 983 448 983 q 763 901 680 983 q 846 689 846 820 l 846 687 l 630 687 l 630 697 q 607 780 630 753 q 538 807 585 807 q 443 757 484 807 q 380 620 402 708 l 642 620 l 603 534 l 360 534 q 356 513 358 523 q 352 492 354 502 q 348 474 350 483 q 344 442 347 464 l 562 442 "},"∂":{"x_min":40,"x_max":715,"ha":755,"o":"m 519 463 q 540 603 533 540 q 548 705 548 666 q 528 805 548 764 q 481 847 508 847 q 392 783 458 847 q 270 720 326 720 q 216 743 237 720 q 194 800 194 766 q 257 885 194 847 q 406 924 320 924 q 631 814 548 924 q 715 515 715 705 q 604 132 715 282 q 321 -17 494 -17 q 119 61 198 -17 q 40 265 40 140 q 120 492 40 402 q 323 583 201 583 q 438 554 391 583 q 519 463 485 525 m 473 360 q 448 480 473 438 q 377 522 423 522 q 268 429 312 522 q 225 194 225 337 q 249 75 225 116 q 321 35 274 35 q 430 126 387 35 q 473 360 473 218 "},"p":{"x_min":-83,"x_max":828,"ha":903,"o":"m 480 577 q 345 502 397 577 q 292 313 292 428 q 323 212 292 248 q 409 176 354 176 q 533 251 484 176 q 583 440 583 327 q 556 541 583 506 q 480 577 530 577 m -83 -296 l 136 737 l 364 737 l 343 641 q 446 733 389 702 q 572 764 504 764 q 760 683 693 764 q 828 458 828 603 q 722 112 828 248 q 457 -24 617 -24 q 327 11 382 -24 q 244 116 273 47 l 156 -296 l -83 -296 "},"‡":{"x_min":-54,"x_max":716,"ha":694,"o":"m 161 102 l -54 102 l -23 248 l 192 248 l 268 606 l 52 606 l 83 752 l 298 752 l 351 999 l 547 999 l 494 752 l 716 752 l 685 606 l 464 606 l 387 248 l 608 248 l 578 102 l 355 102 l 304 -144 l 108 -144 l 161 102 "},"√":{"x_min":52,"x_max":930,"ha":926,"o":"m 784 1163 l 930 1163 l 930 1061 l 864 1061 l 464 -28 l 383 -28 l 175 545 l 77 508 l 52 595 l 296 682 l 447 251 l 784 1163 "},"S":{"x_min":18,"x_max":895,"ha":920,"o":"m 18 319 l 256 319 q 301 202 258 239 q 431 165 343 165 q 549 194 504 165 q 594 272 594 224 q 438 400 594 331 q 350 441 382 425 q 179 565 233 497 q 126 726 126 633 q 224 942 126 862 q 492 1023 323 1023 q 785 942 683 1023 q 895 704 887 861 l 663 704 l 663 706 q 622 805 663 771 q 501 839 581 839 q 398 811 437 839 q 359 741 359 784 q 504 622 359 687 q 591 581 560 597 q 775 453 721 520 q 829 291 829 386 q 723 57 829 142 q 433 -28 617 -28 q 132 61 239 -28 q 18 319 26 150 "},"/":{"x_min":-40,"x_max":404,"ha":386,"o":"m 70 -129 l -40 -129 l 292 1025 l 404 1025 l 70 -129 "},"y":{"x_min":-33,"x_max":793,"ha":739,"o":"m -11 -113 q 27 -119 9 -117 q 59 -122 45 -122 q 124 -98 103 -122 q 144 -26 144 -75 q 142 1 144 -18 q 136 51 140 21 l 38 737 l 280 737 l 311 234 l 544 737 l 793 737 l 417 51 q 380 -19 405 26 q 69 -300 230 -300 q 23 -296 49 -300 q -33 -285 -1 -292 l -11 -113 "},"≈":{"x_min":121,"x_max":1038,"ha":1157,"o":"m 1038 408 l 1038 236 q 905 165 966 187 q 782 143 843 143 q 590 187 721 143 q 380 232 459 232 q 263 206 325 232 q 121 124 202 181 l 121 297 q 262 371 196 347 q 395 395 329 395 q 601 350 473 395 q 786 306 730 306 q 901 329 842 306 q 1038 408 960 353 m 1038 702 l 1038 530 q 904 460 965 482 q 783 439 843 439 q 591 482 721 439 q 380 526 460 526 q 264 501 323 526 q 121 419 204 477 l 121 592 q 262 665 196 642 q 395 689 328 689 q 601 644 473 689 q 786 600 730 600 q 902 624 842 600 q 1038 702 961 648 "},"g":{"x_min":-35,"x_max":855,"ha":896,"o":"m 436 561 q 309 488 362 561 q 257 316 257 416 q 287 221 257 255 q 371 187 317 187 q 496 260 445 187 q 547 434 547 334 q 517 527 547 493 q 436 561 487 561 m 620 737 l 855 737 l 719 105 q 578 -214 669 -131 q 307 -297 487 -297 q 68 -235 157 -297 q -35 -61 -20 -173 l 195 -61 q 225 -112 199 -94 q 299 -131 252 -131 q 411 -83 374 -131 q 470 92 449 -36 q 375 26 425 48 q 269 4 325 4 q 83 85 152 4 q 14 307 14 167 q 118 625 14 496 q 374 754 223 754 q 506 717 449 754 q 595 608 562 680 l 620 737 "},"²":{"x_min":-12,"x_max":513,"ha":541,"o":"m -12 382 q 38 514 -7 451 q 175 634 84 577 q 223 664 192 645 q 354 807 354 746 q 335 854 354 837 q 284 871 317 871 q 225 848 246 871 q 201 784 203 825 l 54 784 q 121 922 60 870 q 279 975 183 975 q 448 926 383 975 q 513 804 513 878 q 476 692 513 740 q 351 596 440 645 q 303 568 334 586 q 195 499 226 525 l 478 499 l 451 382 l -12 382 "},"ë":{"x_min":16,"x_max":771,"ha":846,"o":"m 268 452 l 537 452 q 538 462 537 455 q 539 472 539 469 q 509 570 539 536 q 425 605 479 605 q 321 564 362 605 q 268 452 279 523 m 483 221 l 734 221 q 600 45 701 111 q 365 -21 500 -21 q 109 73 202 -21 q 16 330 16 168 q 132 638 16 515 q 426 762 248 762 q 680 670 590 762 q 771 413 771 578 q 768 363 771 389 q 759 301 765 336 l 252 301 l 252 276 q 281 182 252 214 q 366 150 310 150 q 437 168 407 150 q 483 221 466 186 m 510 859 l 548 1042 l 718 1042 l 679 859 l 510 859 m 265 859 l 304 1042 l 473 1042 l 433 859 l 265 859 "},"–":{"x_min":-35,"x_max":664,"ha":694,"o":"m -35 286 l 1 451 l 664 451 l 628 286 l -35 286 "},"ƒ":{"x_min":-10,"x_max":762,"ha":819,"o":"m -10 -266 l 23 -110 q 57 -118 42 -115 q 87 -121 72 -121 q 191 66 151 -121 l 194 79 l 283 505 l 136 505 l 162 662 l 319 662 q 422 946 355 870 q 625 1022 489 1022 q 695 1016 660 1022 q 762 1000 730 1011 l 726 837 q 688 847 702 844 q 663 850 674 850 q 604 818 624 850 q 563 662 585 786 l 717 662 l 692 505 l 528 505 l 438 91 q 320 -227 382 -163 q 131 -292 257 -292 q 54 -285 89 -292 q -10 -266 20 -279 "},"J":{"x_min":-8,"x_max":819,"ha":818,"o":"m 563 999 l 819 999 l 700 437 q 695 411 699 429 q 599 112 648 185 q 479 8 554 42 q 294 -26 403 -26 q 70 46 149 -26 q -8 253 -8 119 q -4 310 -8 278 q 8 390 0 342 l 227 390 q 215 325 219 355 q 212 266 212 295 q 236 196 212 221 q 305 171 261 171 q 376 204 351 171 q 426 355 401 238 l 563 999 "},"Ã":{"x_min":-92,"x_max":887,"ha":949,"o":"m 573 376 l 514 764 l 342 376 l 573 376 m -92 0 l 407 999 l 684 999 l 887 0 l 628 0 l 601 173 l 250 173 l 176 0 l -92 0 m 817 1315 q 755 1182 793 1224 q 657 1140 716 1140 q 629 1142 644 1140 q 597 1151 615 1145 l 554 1164 q 532 1169 543 1167 q 511 1171 522 1171 q 468 1154 486 1171 q 443 1108 450 1138 l 363 1108 q 423 1240 384 1196 q 522 1284 463 1284 q 553 1281 537 1284 q 585 1274 568 1279 l 627 1260 q 649 1254 638 1256 q 665 1253 659 1253 q 708 1267 693 1253 q 735 1315 724 1281 l 817 1315 "},"©":{"x_min":72,"x_max":1085,"ha":1157,"o":"m 828 604 l 683 604 q 651 674 679 649 q 578 700 624 700 q 490 647 522 700 q 459 500 459 595 q 491 356 459 405 q 585 308 523 308 q 657 335 630 308 q 688 413 683 363 l 834 413 q 761 257 829 316 q 582 198 692 198 q 378 277 453 198 q 303 495 303 357 q 378 719 303 636 q 581 802 453 802 q 755 747 687 802 q 828 604 823 693 m 579 914 q 419 883 493 914 q 287 792 345 852 q 195 656 227 732 q 164 498 164 580 q 195 342 164 418 q 287 207 227 267 q 421 117 346 148 q 579 86 497 86 q 737 117 661 86 q 874 209 814 149 q 963 339 933 266 q 993 498 993 413 q 962 658 993 583 q 873 791 931 733 q 738 882 813 851 q 579 914 663 914 m 578 1007 q 774 969 682 1007 q 939 858 866 931 q 1048 695 1011 786 q 1085 499 1085 604 q 1048 305 1085 395 q 940 144 1011 214 q 772 32 866 71 q 578 -7 679 -7 q 385 31 477 -7 q 221 142 293 70 q 110 306 148 215 q 72 499 72 397 q 111 692 72 600 q 222 859 150 785 q 384 969 293 931 q 578 1007 474 1007 "},"˘":{"x_min":246,"x_max":677,"ha":694,"o":"m 248 1054 l 336 1054 l 336 1047 q 360 981 336 1003 q 435 960 384 960 q 526 982 490 960 q 585 1054 563 1005 l 677 1054 q 583 898 647 951 q 423 846 519 846 q 290 891 334 846 q 246 1024 246 936 q 247 1039 246 1030 q 248 1054 248 1049 "},"≥":{"x_min":174,"x_max":985,"ha":1157,"o":"m 174 144 l 985 144 l 985 -11 l 174 -11 l 174 144 m 175 852 l 983 595 l 983 459 l 175 202 l 175 364 l 701 527 l 175 689 l 175 852 "},"D":{"x_min":-1,"x_max":1009,"ha":1059,"o":"m 298 207 l 428 207 q 584 236 523 207 q 685 330 645 265 q 737 454 718 382 q 756 599 756 527 q 704 746 756 702 q 529 791 653 791 l 424 791 l 298 207 m -1 0 l 209 999 l 509 999 q 716 986 648 999 q 836 944 785 973 q 964 807 919 897 q 1009 594 1009 717 q 971 356 1009 469 q 864 165 933 244 q 683 37 786 75 q 380 0 580 0 l -1 0 "},"ÿ":{"x_min":-33,"x_max":793,"ha":739,"o":"m -11 -113 q 27 -119 9 -117 q 59 -122 45 -122 q 124 -98 103 -122 q 144 -26 144 -75 q 142 1 144 -18 q 136 51 140 21 l 38 737 l 280 737 l 311 234 l 544 737 l 793 737 l 417 51 q 380 -19 405 26 q 69 -300 230 -300 q 23 -296 49 -300 q -33 -285 -1 -292 l -11 -113 m 480 859 l 518 1042 l 688 1042 l 649 859 l 480 859 m 235 859 l 274 1042 l 443 1042 l 403 859 l 235 859 "},"ł":{"x_min":-64,"x_max":500,"ha":428,"o":"m -6 0 l 69 364 l -2 322 l -64 429 l 104 524 l 204 999 l 438 999 l 367 658 l 438 699 l 500 592 l 331 495 l 226 0 l -6 0 "},"Ł":{"x_min":-52,"x_max":783,"ha":835,"o":"m 6 0 l 79 347 l 22 313 l -52 442 l 121 543 l 219 999 l 468 999 l 400 676 l 627 807 l 702 677 l 358 480 l 301 212 l 783 212 l 738 0 l 6 0 "},"$":{"x_min":-2,"x_max":805,"ha":819,"o":"m 397 615 l 440 812 q 429 813 434 813 q 416 814 424 814 q 346 786 373 814 q 320 714 320 759 q 339 655 320 681 q 397 615 359 630 m 379 158 q 473 186 437 158 q 510 259 510 214 q 488 313 510 289 q 422 359 466 338 l 379 158 m -2 278 l 217 278 q 239 198 220 223 q 301 166 259 172 l 351 398 q 156 537 210 472 q 102 688 102 602 q 193 900 102 822 q 441 979 284 979 q 458 978 447 979 q 474 977 469 977 l 490 1050 l 570 1050 l 554 970 q 741 875 678 945 q 805 690 805 804 l 805 679 l 591 679 q 574 762 591 735 q 518 801 558 789 l 470 581 q 682 432 628 496 q 736 281 736 368 q 636 60 736 142 q 367 -22 537 -22 l 340 -22 l 313 -150 l 233 -150 l 261 -15 q 67 72 137 0 q -2 261 -2 145 l -2 278 "},"w":{"x_min":31,"x_max":1183,"ha":1145,"o":"m 94 0 l 31 737 l 264 737 l 272 238 l 493 737 l 725 737 l 714 242 l 938 737 l 1183 737 l 794 0 l 549 0 l 558 494 l 339 0 l 94 0 "},"\\":{"x_min":92,"x_max":349,"ha":431,"o":"m 241 -129 l 92 1025 l 199 1025 l 349 -129 l 241 -129 "},"∫":{"x_min":35,"x_max":814,"ha":847,"o":"m 245 -168 q 326 284 312 -168 q 329 388 328 352 q 417 899 340 743 q 654 1055 494 1055 q 769 1019 725 1055 q 814 926 814 983 q 786 855 814 882 q 714 829 758 829 q 648 855 670 829 q 626 931 626 881 q 621 964 626 957 q 604 972 616 972 q 520 519 535 972 q 518 458 518 479 q 497 137 510 235 q 458 -27 484 40 q 350 -196 416 -140 q 194 -253 284 -253 q 78 -217 122 -253 q 35 -123 35 -182 q 63 -52 35 -79 q 139 -26 91 -26 q 201 -50 179 -26 q 224 -120 224 -74 q 222 -136 224 -128 q 222 -138 222 -138 q 228 -161 222 -155 q 245 -168 233 -168 "},"Ì":{"x_min":-7,"x_max":469,"ha":460,"o":"m -7 0 l 209 999 l 462 999 l 249 0 l -7 0 m 175 1337 l 357 1337 l 469 1086 l 374 1086 l 175 1337 "},"Ç":{"x_min":46,"x_max":983,"ha":1032,"o":"m 693 340 l 936 340 q 776 72 908 176 q 465 -31 644 -31 q 159 90 272 -31 q 46 417 46 212 q 86 650 46 537 q 201 849 126 762 q 374 980 275 935 q 587 1026 474 1026 q 873 927 765 1026 q 983 665 981 828 l 740 665 q 697 781 737 741 q 585 822 658 822 q 467 788 523 822 q 375 695 412 755 q 315 557 337 636 q 293 408 293 478 q 345 240 293 301 q 489 179 398 179 q 613 219 562 179 q 693 340 665 260 m 233 -297 l 267 -207 q 352 -233 311 -224 q 427 -243 393 -243 q 475 -229 457 -243 q 493 -192 493 -215 q 467 -156 493 -166 q 376 -146 442 -146 l 357 -146 l 408 0 l 485 0 l 463 -63 q 582 -93 543 -64 q 622 -180 622 -123 q 573 -297 622 -256 q 433 -338 524 -338 q 346 -327 396 -338 q 233 -297 296 -317 "},"C":{"x_min":46,"x_max":983,"ha":1032,"o":"m 693 340 l 936 340 q 776 72 908 176 q 465 -31 644 -31 q 159 90 272 -31 q 46 417 46 212 q 86 650 46 537 q 201 849 126 762 q 374 980 275 935 q 587 1026 474 1026 q 873 927 765 1026 q 983 665 981 828 l 740 665 q 697 781 737 741 q 585 822 658 822 q 467 788 523 822 q 375 695 412 755 q 315 557 337 636 q 293 408 293 478 q 345 240 293 301 q 489 179 398 179 q 613 219 562 179 q 693 340 665 260 "},"!":{"x_min":14,"x_max":477,"ha":473,"o":"m 135 343 l 214 999 l 477 999 l 270 343 l 135 343 m 14 0 l 65 241 l 319 241 l 267 0 l 14 0 "},"ç":{"x_min":18,"x_max":755,"ha":829,"o":"m 489 272 l 732 272 q 610 58 715 140 q 356 -24 506 -24 q 104 65 190 -24 q 18 327 18 155 q 131 638 18 517 q 424 760 245 760 q 665 681 577 760 q 755 464 752 602 l 515 464 q 487 550 513 519 q 414 582 460 582 q 303 501 348 582 q 259 299 259 420 q 286 196 259 231 q 367 161 314 161 q 444 190 411 161 q 489 272 476 219 m 142 -297 l 176 -207 q 261 -233 220 -224 q 336 -243 302 -243 q 384 -229 366 -243 q 402 -192 402 -215 q 376 -156 402 -166 q 285 -146 351 -146 l 266 -146 l 317 0 l 394 0 l 372 -63 q 491 -93 452 -64 q 531 -180 531 -123 q 482 -297 531 -256 q 342 -338 433 -338 q 255 -327 305 -338 q 142 -297 205 -317 "},"È":{"x_min":0,"x_max":908,"ha":895,"o":"m 0 0 l 213 999 l 908 999 l 866 799 l 423 799 l 384 616 l 790 616 l 749 419 l 342 419 l 296 200 l 764 200 l 721 0 l 0 0 m 392 1337 l 574 1337 l 686 1086 l 591 1086 l 392 1337 "},"X":{"x_min":-119,"x_max":929,"ha":831,"o":"m -119 0 l 286 531 l 77 999 l 336 999 l 451 729 l 649 999 l 929 999 l 551 501 l 773 0 l 514 0 l 384 305 l 161 0 l -119 0 "},"ô":{"x_min":12,"x_max":826,"ha":899,"o":"m 451 585 q 309 506 365 585 q 253 313 253 427 q 287 194 253 236 q 385 152 322 152 q 527 231 470 152 q 585 432 585 311 q 549 544 585 504 q 451 585 514 585 m 12 316 q 135 640 12 516 q 455 765 258 765 q 726 671 626 765 q 826 416 826 577 q 701 96 826 221 q 380 -28 577 -28 q 111 64 210 -28 q 12 316 12 157 m 706 825 l 609 825 l 524 959 l 373 825 l 271 825 l 447 1076 l 619 1076 l 706 825 "},"đ":{"x_min":10,"x_max":1001,"ha":903,"o":"m 364 162 q 494 237 441 162 q 546 423 546 313 q 515 525 546 488 q 429 562 484 562 q 305 486 356 562 q 255 297 255 410 q 283 196 255 231 q 364 162 311 162 m 914 999 l 899 926 l 1001 926 l 975 808 l 874 808 l 701 0 l 474 0 l 495 95 q 392 5 450 36 q 265 -25 334 -25 q 77 55 145 -25 q 10 280 10 136 q 116 625 10 488 q 382 762 222 762 q 507 725 455 762 q 593 613 558 689 l 635 808 l 395 808 l 419 926 l 660 926 l 675 999 l 914 999 "},"}":{"x_min":91,"x_max":594,"ha":694,"o":"m 91 1002 q 119 1002 101 1002 q 145 1003 137 1003 q 267 995 218 1003 q 349 970 316 987 q 405 909 388 948 q 422 778 422 870 l 422 606 q 455 477 422 515 q 569 440 488 440 q 581 441 573 440 q 594 442 589 442 l 594 278 q 581 278 589 278 q 569 279 573 279 q 455 242 488 279 q 422 115 422 204 l 422 -57 q 405 -189 422 -150 q 349 -249 388 -228 q 272 -273 318 -265 q 152 -281 225 -281 q 122 -280 142 -281 q 91 -280 101 -280 l 91 -116 q 106 -116 97 -116 q 120 -117 116 -117 q 208 -94 185 -117 q 231 4 231 -70 l 231 168 q 262 303 231 263 q 374 359 293 343 q 261 416 292 376 q 231 553 231 456 l 231 715 q 208 815 231 791 q 122 839 185 839 q 107 838 118 839 q 91 838 97 838 l 91 1002 "},"â":{"x_min":-16,"x_max":731,"ha":823,"o":"m 467 351 q 353 323 427 336 q 222 221 222 299 q 245 164 222 186 q 306 142 269 142 q 411 186 375 142 q 467 351 447 231 m 435 76 q 329 6 387 30 q 206 -17 271 -17 q 45 43 106 -17 q -16 203 -16 103 q 52 372 -16 312 q 265 450 121 433 q 347 458 295 454 q 498 538 498 473 q 473 587 498 568 q 409 606 448 606 q 335 589 362 606 q 297 535 309 572 l 70 535 q 184 707 97 650 q 417 765 271 765 q 648 703 565 765 q 731 533 731 642 q 729 494 731 511 q 724 463 727 477 l 655 124 q 652 101 653 114 q 651 76 651 89 q 655 45 651 57 q 670 23 659 33 l 670 0 l 435 0 l 435 76 m 670 825 l 573 825 l 488 959 l 337 825 l 235 825 l 411 1076 l 583 1076 l 670 825 "},"ø":{"x_min":-27.8125,"x_max":860.515625,"ha":899,"o":"m 47 -55 l -27 18 l 74 114 q 30 213 45 161 q 16 322 16 265 q 138 639 16 512 q 446 766 260 766 q 580 749 520 766 q 685 699 641 732 l 786 797 l 860 721 l 764 628 q 813 523 797 577 q 830 410 830 469 q 705 99 830 224 q 389 -26 580 -26 q 255 -9 316 -26 q 148 39 195 7 l 47 -55 m 580 474 l 283 192 q 323 162 299 172 q 378 153 347 153 q 527 226 468 153 q 587 409 587 299 q 585 439 587 424 q 580 474 583 455 m 253 264 l 549 546 q 507 577 531 567 q 453 588 483 588 q 308 510 365 588 q 252 309 252 433 q 252 283 252 294 q 253 264 252 273 "},"Ä":{"x_min":-92,"x_max":887,"ha":949,"o":"m 573 376 l 514 764 l 342 376 l 573 376 m -92 0 l 407 999 l 684 999 l 887 0 l 628 0 l 601 173 l 250 173 l 176 0 l -92 0 m 609 1120 l 647 1303 l 817 1303 l 778 1120 l 609 1120 m 364 1120 l 403 1303 l 572 1303 l 532 1120 l 364 1120 "},"‰":{"x_min":39,"x_max":1882,"ha":1917,"o":"m 1494 248 q 1526 169 1494 202 q 1605 137 1559 137 q 1684 169 1651 137 q 1717 248 1717 202 q 1684 327 1717 294 q 1605 360 1652 360 q 1526 327 1559 360 q 1494 248 1494 294 m 1329 248 q 1409 443 1329 362 q 1605 525 1490 525 q 1801 443 1720 525 q 1882 248 1882 362 q 1801 53 1882 134 q 1605 -28 1720 -28 q 1409 53 1490 -28 q 1329 248 1329 134 m 868 248 q 900 169 868 202 q 980 137 933 137 q 1058 169 1026 137 q 1091 248 1091 202 q 1058 327 1091 294 q 980 360 1026 360 q 900 327 932 360 q 868 248 868 294 m 703 248 q 783 443 703 362 q 979 525 864 525 q 1175 443 1094 525 q 1256 248 1256 362 q 1175 53 1256 134 q 979 -28 1094 -28 q 783 53 864 -28 q 703 248 703 134 m 300 -28 l 872 985 l 995 985 l 424 -28 l 300 -28 m 204 707 q 236 629 204 662 q 316 597 269 597 q 394 629 362 597 q 427 707 427 662 q 394 787 427 754 q 316 820 362 820 q 236 787 268 820 q 204 707 204 754 m 39 708 q 119 903 39 822 q 315 985 200 985 q 511 903 430 985 q 592 708 592 822 q 511 513 592 594 q 315 432 430 432 q 119 513 200 432 q 39 708 39 594 "},"N":{"x_min":-5,"x_max":1073,"ha":1065,"o":"m -5 0 l 205 999 l 460 999 l 689 343 l 830 999 l 1073 999 l 860 0 l 607 0 l 371 655 l 232 0 l -5 0 "},"—":{"x_min":-18,"x_max":1406,"ha":1389,"o":"m -18 286 l 16 451 l 1406 451 l 1370 286 l -18 286 "},"2":{"x_min":-17,"x_max":777,"ha":819,"o":"m -17 0 q 58 220 -10 116 q 265 421 128 324 q 336 470 290 438 q 537 707 537 607 q 509 786 537 758 q 432 815 481 815 q 343 776 375 815 q 307 669 311 738 l 83 669 q 185 900 92 813 q 424 987 278 987 q 679 907 581 987 q 777 702 777 827 q 722 518 777 597 q 533 355 668 439 q 471 317 512 342 q 298 195 346 241 l 724 195 l 684 0 l -17 0 "},"ü":{"x_min":20,"x_max":847,"ha":895,"o":"m 847 737 l 690 0 l 465 0 l 489 105 q 366 11 429 42 q 234 -20 303 -20 q 75 34 131 -20 q 20 188 20 88 q 24 253 20 217 q 37 328 28 288 l 123 737 l 364 737 l 282 348 q 271 291 275 317 q 268 253 268 264 q 288 190 268 211 q 350 169 308 169 q 460 217 414 169 q 524 353 506 266 l 607 737 l 847 737 m 558 859 l 596 1042 l 766 1042 l 727 859 l 558 859 m 313 859 l 352 1042 l 521 1042 l 481 859 l 313 859 "},"":{"x_min":3,"x_max":910,"ha":895,"o":"m 464 0 l 675 999 l 910 999 l 697 0 l 464 0 m 3 0 l 129 595 l 25 595 l 55 737 l 160 737 q 258 953 190 892 q 462 1015 325 1015 q 522 1012 492 1015 q 586 1004 552 1009 l 551 845 q 521 849 536 848 q 494 851 507 851 q 432 826 453 851 q 401 737 412 802 l 529 737 l 498 595 l 371 595 l 244 0 l 3 0 "},"Ó":{"x_min":54,"x_max":1060,"ha":1112,"o":"m 598 816 q 389 698 471 816 q 308 405 308 580 q 361 236 308 296 q 512 176 415 176 q 723 293 639 176 q 807 589 807 411 q 753 758 807 700 q 598 816 699 816 m 54 426 q 208 855 54 687 q 606 1023 363 1023 q 938 902 817 1023 q 1060 570 1060 781 q 904 140 1060 309 q 509 -29 749 -29 q 176 93 298 -29 q 54 426 54 215 m 526 1086 l 684 1337 l 896 1337 l 629 1086 l 526 1086 "},"˜":{"x_min":212,"x_max":666,"ha":694,"o":"m 666 1054 q 604 921 642 963 q 506 879 565 879 q 478 881 493 879 q 446 890 464 884 l 403 903 q 381 908 392 906 q 360 910 371 910 q 317 893 335 910 q 292 847 299 877 l 212 847 q 272 979 233 935 q 371 1023 312 1023 q 402 1020 386 1023 q 434 1013 417 1018 l 476 999 q 498 993 487 995 q 514 992 508 992 q 557 1006 542 992 q 584 1054 573 1020 l 666 1054 "},"ˇ":{"x_min":241,"x_max":676,"ha":694,"o":"m 241 1076 l 337 1076 l 422 939 l 572 1076 l 676 1076 l 498 825 l 325 825 l 241 1076 "},"Ÿ":{"x_min":54,"x_max":971,"ha":871,"o":"m 213 0 l 296 392 l 54 999 l 321 999 l 439 642 q 446 614 444 630 q 448 577 448 598 q 459 623 453 602 q 473 655 466 643 l 684 999 l 971 999 l 545 366 l 469 0 l 213 0 m 609 1120 l 647 1303 l 817 1303 l 778 1120 l 609 1120 m 364 1120 l 403 1303 l 572 1303 l 532 1120 l 364 1120 "},"€":{"x_min":-32,"x_max":846,"ha":819,"o":"m 562 442 l 525 356 l 335 356 q 332 325 332 335 q 331 306 331 314 q 357 191 331 228 q 437 154 383 154 q 521 184 487 154 q 576 281 555 215 l 794 281 q 659 47 748 121 q 422 -26 569 -26 q 185 73 268 -26 q 100 356 101 172 l -32 356 l 6 442 l 104 442 q 109 488 106 465 q 116 534 112 511 l 10 534 l 50 620 l 136 620 q 175 726 152 675 q 230 820 199 776 q 368 942 289 901 q 548 983 448 983 q 763 901 680 983 q 846 689 846 820 l 846 687 l 630 687 l 630 697 q 607 780 630 753 q 538 807 585 807 q 443 757 484 807 q 380 620 402 708 l 642 620 l 603 534 l 360 534 q 356 513 358 523 q 352 492 354 502 q 348 474 350 483 q 344 442 347 464 l 562 442 "},"ß":{"x_min":-26,"x_max":822,"ha":880,"o":"m -26 0 l 108 635 q 237 935 155 856 q 479 1015 319 1015 q 728 935 634 1015 q 822 727 822 856 q 783 587 822 648 q 673 493 744 526 q 752 411 726 458 q 779 305 779 365 q 687 72 779 158 q 438 -14 595 -14 q 412 -15 430 -14 q 385 -16 395 -16 q 348 -13 363 -15 q 317 -5 332 -11 l 360 196 q 390 190 373 195 q 410 185 407 185 q 504 222 468 185 q 540 316 540 259 q 507 402 540 371 q 411 437 474 432 l 449 612 q 459 611 453 612 q 467 610 464 610 q 556 642 526 610 q 587 735 587 673 q 558 806 587 780 q 479 833 529 833 q 400 796 427 833 q 344 624 372 759 l 210 0 l -26 0 "},"s":{"x_min":-2,"x_max":717,"ha":790,"o":"m -2 236 l 212 236 q 254 156 220 183 q 346 129 288 129 q 423 146 393 129 q 453 192 453 164 q 321 289 453 235 q 265 312 285 304 q 93 415 135 369 q 52 531 52 462 q 141 700 52 637 q 382 764 230 764 q 621 703 534 764 q 717 531 708 642 l 504 531 q 461 597 490 577 q 380 617 432 617 q 311 601 337 617 q 285 560 285 585 q 398 481 285 525 q 522 429 473 451 q 647 341 606 391 q 688 225 688 291 q 596 45 688 114 q 355 -24 504 -24 q 101 44 195 -24 q -2 236 7 113 "},"?":{"x_min":96,"x_max":820,"ha":829,"o":"m 248 322 q 287 453 254 402 q 428 574 320 504 q 455 591 438 580 q 583 744 583 670 q 550 816 583 788 q 466 845 518 845 q 364 804 403 845 q 318 691 326 764 l 96 691 q 207 934 110 846 q 460 1023 304 1023 q 722 945 625 1023 q 820 738 820 868 q 787 608 820 665 q 689 505 755 550 q 604 456 660 485 q 472 322 485 396 l 248 322 m 166 0 l 216 241 l 470 241 l 418 0 l 166 0 "},"c":{"x_min":18,"x_max":755,"ha":829,"o":"m 489 272 l 732 272 q 610 58 715 140 q 356 -24 506 -24 q 104 65 190 -24 q 18 327 18 155 q 131 638 18 517 q 424 760 245 760 q 665 681 577 760 q 755 464 752 602 l 515 464 q 487 550 513 519 q 414 582 460 582 q 303 501 348 582 q 259 299 259 420 q 286 196 259 231 q 367 161 314 161 q 444 190 411 161 q 489 272 476 219 "},"¶":{"x_min":19,"x_max":675,"ha":694,"o":"m 675 1003 l 675 920 l 603 920 l 603 0 l 485 0 l 485 920 l 383 920 l 383 0 l 265 0 l 265 532 q 86 600 153 536 q 19 766 19 664 q 91 938 19 873 q 283 1003 163 1003 l 675 1003 "},"•":{"x_min":208,"x_max":609,"ha":819,"o":"m 208 516 q 266 657 208 599 q 409 716 325 716 q 550 657 491 716 q 609 516 609 598 q 549 374 609 433 q 407 315 490 315 q 266 373 324 315 q 208 516 208 432 "},"(":{"x_min":94,"x_max":643,"ha":550,"o":"m 382 -242 l 226 -242 q 126 21 158 -100 q 94 259 94 144 q 181 634 94 452 q 451 997 269 815 l 643 997 q 392 588 477 801 q 308 156 308 374 q 326 -31 308 65 q 382 -242 344 -128 "},"◊":{"x_min":4,"x_max":682,"ha":686,"o":"m 343 955 l 81 401 l 343 -159 l 604 401 l 343 955 m 343 1121 l 682 401 l 343 -324 l 4 401 l 343 1121 "},"­":{"x_min":-10,"x_max":444,"ha":479,"o":"m -10 268 l 33 469 l 444 469 l 401 268 l -10 268 "},":":{"x_min":-11,"x_max":393,"ha":441,"o":"m 88 468 l 139 710 l 393 710 l 341 468 l 88 468 m -11 0 l 39 241 l 293 241 l 241 0 l -11 0 "},"Û":{"x_min":69,"x_max":1052,"ha":1048,"o":"m 198 999 l 449 999 l 342 487 q 325 387 331 435 q 319 317 319 340 q 358 216 319 253 q 467 180 397 180 q 599 233 553 180 q 680 450 645 286 l 795 999 l 1052 999 l 956 547 q 948 508 953 534 q 831 138 888 218 q 680 14 774 57 q 463 -28 586 -28 q 173 61 277 -28 q 69 311 69 150 q 111 583 69 383 l 115 604 l 198 999 m 855 1086 l 758 1086 l 673 1220 l 522 1086 l 420 1086 l 596 1337 l 768 1337 l 855 1086 "},"V":{"x_min":65,"x_max":970,"ha":901,"o":"m 244 0 l 65 999 l 324 999 l 412 282 l 704 999 l 970 999 l 499 0 l 244 0 "}," ":{"x_min":0,"x_max":0,"ha":819},"@":{"x_min":56,"x_max":1335,"ha":1389,"o":"m 787 178 q 701 96 749 122 q 587 71 654 71 q 419 130 476 71 q 363 304 363 189 q 459 578 363 468 q 696 689 555 689 q 787 668 748 689 q 851 605 825 647 l 886 668 l 1026 668 l 922 255 q 922 251 922 253 q 919 232 919 238 q 930 202 919 212 q 962 192 941 192 q 1125 289 1055 192 q 1196 516 1196 387 q 1074 780 1196 678 q 757 883 952 883 q 571 858 656 883 q 415 784 485 833 q 252 597 309 709 q 196 356 196 486 q 333 29 196 151 q 702 -92 471 -92 q 917 -59 814 -92 q 1107 34 1020 -27 l 1172 -57 q 949 -175 1067 -136 q 702 -215 832 -215 q 462 -181 572 -215 q 266 -83 352 -148 q 108 107 160 0 q 56 352 56 215 q 91 569 56 467 q 197 758 127 672 q 441 946 298 882 q 758 1011 584 1011 q 975 979 873 1011 q 1151 890 1077 948 q 1289 725 1244 817 q 1335 518 1335 633 q 1290 310 1335 405 q 1161 147 1246 215 q 1056 89 1114 109 q 937 69 999 69 q 828 96 865 69 q 787 178 791 124 m 812 472 q 778 550 806 523 q 704 578 751 578 q 581 495 634 578 q 528 301 528 413 q 551 214 528 245 q 618 184 575 184 q 718 223 675 184 q 778 330 761 263 l 812 472 "},"¾":{"x_min":7,"x_max":1248,"ha":1264,"o":"m 1035 224 l 1087 440 l 864 224 l 1035 224 m 982 0 l 1011 122 l 729 122 l 760 254 l 1069 536 l 1248 536 l 1175 224 l 1238 224 l 1214 122 l 1150 122 l 1121 0 l 982 0 m 285 0 l 860 985 l 984 985 l 408 0 l 285 0 m 7 587 l 147 587 l 147 574 q 165 522 147 541 q 219 504 184 504 q 279 528 256 504 q 303 592 303 553 q 280 639 303 623 q 214 656 258 654 l 234 742 l 237 742 q 323 760 295 742 q 352 817 352 779 q 333 860 352 844 q 285 876 315 876 q 235 859 254 876 q 209 810 216 842 l 71 810 q 142 927 82 883 q 291 971 201 971 q 439 930 383 971 q 496 823 496 889 q 463 739 496 773 q 367 689 431 705 q 432 641 410 671 q 455 572 455 612 q 391 452 455 497 q 222 408 328 408 q 64 452 121 408 q 7 574 7 496 l 7 587 "},"i":{"x_min":-21,"x_max":433,"ha":415,"o":"m 152 818 l 191 1006 l 433 1006 l 392 818 l 152 818 m -21 0 l 135 737 l 375 737 l 219 0 l -21 0 "},"≤":{"x_min":174,"x_max":985,"ha":1157,"o":"m 174 144 l 985 144 l 985 -11 l 174 -11 l 174 144 m 983 852 l 983 689 l 457 527 l 983 364 l 983 202 l 174 459 l 174 595 l 983 852 "},"m":{"x_min":-22,"x_max":1214,"ha":1304,"o":"m -22 0 l 135 737 l 359 737 l 337 633 q 453 728 394 696 q 576 760 512 760 q 690 727 645 760 q 761 628 736 694 q 890 727 831 697 q 1015 757 949 757 q 1161 702 1109 757 q 1214 550 1214 648 q 1209 482 1214 518 q 1198 408 1205 446 l 1111 0 l 885 0 l 968 390 q 977 446 974 419 q 981 489 981 472 q 960 548 981 527 q 904 569 940 569 q 800 522 841 569 q 739 384 759 476 l 658 0 l 440 0 l 523 390 q 533 442 529 417 q 536 484 536 467 q 517 547 536 526 q 462 569 499 569 q 363 523 402 569 q 304 384 324 478 l 223 0 l -22 0 "},"ž":{"x_min":-49,"x_max":704,"ha":724,"o":"m -49 0 l -11 176 l 393 563 l 40 563 l 78 737 l 704 737 l 665 557 l 282 180 l 647 180 l 608 0 l -49 0 m 257 1076 l 353 1076 l 438 939 l 588 1076 l 692 1076 l 514 825 l 341 825 l 257 1076 "},"á":{"x_min":-16,"x_max":731,"ha":823,"o":"m 467 351 q 353 323 427 336 q 222 221 222 299 q 245 164 222 186 q 306 142 269 142 q 411 186 375 142 q 467 351 447 231 m 435 76 q 329 6 387 30 q 206 -17 271 -17 q 45 43 106 -17 q -16 203 -16 103 q 52 372 -16 312 q 265 450 121 433 q 347 458 295 454 q 498 538 498 473 q 473 587 498 568 q 409 606 448 606 q 335 589 362 606 q 297 535 309 572 l 70 535 q 184 707 97 650 q 417 765 271 765 q 648 703 565 765 q 731 533 731 642 q 729 494 731 511 q 724 463 727 477 l 655 124 q 652 101 653 114 q 651 76 651 89 q 655 45 651 57 q 670 23 659 33 l 670 0 l 435 0 l 435 76 m 331 825 l 489 1076 l 701 1076 l 434 825 l 331 825 "},"×":{"x_min":182,"x_max":999,"ha":1157,"o":"m 291 823 l 590 524 l 889 823 l 999 713 l 700 413 l 999 114 l 889 5 l 590 304 l 291 5 l 182 114 l 481 413 l 182 713 l 291 823 "},"İ":{"x_min":-7,"x_max":494,"ha":460,"o":"m -7 0 l 209 999 l 462 999 l 249 0 l -7 0 m 276 1117 l 316 1308 l 494 1308 l 454 1117 l 276 1117 "},"K":{"x_min":-5,"x_max":1060,"ha":981,"o":"m -5 0 l 210 999 l 463 999 l 388 640 l 747 999 l 1060 999 l 608 571 l 869 0 l 597 0 l 422 394 l 315 292 l 252 0 l -5 0 "},"7":{"x_min":86,"x_max":835,"ha":819,"o":"m 101 0 q 224 346 121 160 q 523 763 327 533 l 86 763 l 126 958 l 835 958 l 797 781 q 502 371 606 560 q 366 0 398 182 l 101 0 "},"¨":{"x_min":213,"x_max":666,"ha":694,"o":"m 458 859 l 496 1042 l 666 1042 l 627 859 l 458 859 m 213 859 l 252 1042 l 421 1042 l 381 859 l 213 859 "},"Y":{"x_min":54,"x_max":971,"ha":871,"o":"m 213 0 l 296 392 l 54 999 l 321 999 l 439 642 q 446 614 444 630 q 448 577 448 598 q 459 623 453 602 q 473 655 466 643 l 684 999 l 971 999 l 545 366 l 469 0 l 213 0 "},"E":{"x_min":0,"x_max":908,"ha":895,"o":"m 0 0 l 213 999 l 908 999 l 866 799 l 423 799 l 384 616 l 790 616 l 749 419 l 342 419 l 296 200 l 764 200 l 721 0 l 0 0 "},"Ô":{"x_min":54,"x_max":1060,"ha":1112,"o":"m 598 816 q 389 698 471 816 q 308 405 308 580 q 361 236 308 296 q 512 176 415 176 q 723 293 639 176 q 807 589 807 411 q 753 758 807 700 q 598 816 699 816 m 54 426 q 208 855 54 687 q 606 1023 363 1023 q 938 902 817 1023 q 1060 570 1060 781 q 904 140 1060 309 q 509 -29 749 -29 q 176 93 298 -29 q 54 426 54 215 m 865 1086 l 768 1086 l 683 1220 l 532 1086 l 430 1086 l 606 1337 l 778 1337 l 865 1086 "},"Ï":{"x_min":-7,"x_max":612,"ha":460,"o":"m -7 0 l 209 999 l 462 999 l 249 0 l -7 0 m 404 1120 l 442 1303 l 612 1303 l 573 1120 l 404 1120 m 159 1120 l 198 1303 l 367 1303 l 327 1120 l 159 1120 "},"‹":{"x_min":17,"x_max":309,"ha":354,"o":"m 196 104 l 17 306 l 48 460 l 309 633 l 268 442 l 148 365 l 232 271 l 196 104 "},"±":{"x_min":172,"x_max":985,"ha":1157,"o":"m 172 145 l 985 145 l 985 -12 l 172 -12 l 172 145 m 498 841 l 659 841 l 659 625 l 985 625 l 985 468 l 659 468 l 659 252 l 498 252 l 498 468 l 172 468 l 172 625 l 498 625 l 498 841 "},"ì":{"x_min":-21,"x_max":384,"ha":415,"o":"m -21 0 l 136 737 l 376 737 l 219 0 l -21 0 m 90 1076 l 272 1076 l 384 825 l 289 825 l 90 1076 "},"|":{"x_min":267,"x_max":430,"ha":694,"o":"m 267 1061 l 430 1061 l 430 -328 l 267 -328 l 267 1061 "},"§":{"x_min":-14,"x_max":681,"ha":694,"o":"m 385 327 q 451 360 431 342 q 471 405 471 378 q 461 436 471 422 q 429 466 452 449 l 274 583 q 215 553 236 572 q 194 510 194 534 q 262 420 194 470 q 272 413 268 416 l 385 327 m 179 115 l 179 108 q 204 37 179 63 q 272 11 229 11 q 330 30 309 11 q 351 82 351 49 q 263 186 351 127 q 252 194 255 192 l 151 262 q 48 365 83 309 q 14 485 14 420 q 59 607 14 554 q 181 679 105 660 q 147 741 158 709 q 137 808 137 772 q 211 963 137 902 q 407 1025 286 1025 q 607 963 533 1025 q 681 796 681 902 l 681 778 l 496 778 q 470 853 493 828 q 400 878 446 878 q 350 859 370 878 q 330 811 330 840 q 345 768 330 789 q 402 718 361 748 l 537 626 q 621 540 593 588 q 650 435 650 491 q 606 301 650 353 q 481 229 563 249 q 530 164 514 198 q 546 90 546 131 q 473 -74 546 -14 q 273 -135 401 -135 q 60 -72 132 -135 q -14 115 -11 -9 l 179 115 "},"q":{"x_min":12,"x_max":862,"ha":896,"o":"m 366 163 q 495 238 443 163 q 548 425 548 314 q 517 527 548 490 q 431 564 486 564 q 307 488 357 564 q 257 298 257 412 q 285 197 257 232 q 366 163 313 163 m 630 741 l 862 741 l 641 -296 l 402 -296 l 481 79 q 380 1 434 27 q 260 -24 325 -24 q 79 57 146 -24 q 12 282 12 139 q 118 627 12 490 q 384 764 224 764 q 517 725 463 764 q 601 607 570 686 l 630 741 "},"b":{"x_min":-24,"x_max":826,"ha":903,"o":"m 479 577 q 344 502 396 577 q 291 313 291 428 q 322 212 291 248 q 408 176 353 176 q 532 251 482 176 q 583 440 583 327 q 555 541 583 506 q 479 577 528 577 m 202 0 l -24 0 l 187 999 l 426 999 l 352 656 q 450 736 395 709 q 570 764 506 764 q 758 683 691 764 q 826 458 826 603 q 720 112 826 249 q 455 -24 614 -24 q 319 18 376 -24 q 234 141 263 60 l 202 0 "},"®":{"x_min":72,"x_max":1085,"ha":1157,"o":"m 517 693 l 517 545 l 571 545 q 647 562 622 545 q 672 616 672 580 q 646 674 672 656 q 562 693 620 693 l 517 693 m 364 789 l 588 789 q 767 748 706 789 q 829 628 829 707 q 797 534 829 573 q 711 478 766 494 l 834 233 l 666 233 l 561 455 l 517 455 l 517 233 l 364 233 l 364 789 m 578 914 q 420 884 494 914 q 289 797 347 854 q 195 660 227 736 q 164 498 164 583 q 193 343 164 417 q 282 211 223 270 q 417 118 341 151 q 577 86 493 86 q 735 116 659 86 q 870 205 810 147 q 961 338 930 262 q 993 498 993 413 q 963 657 993 582 q 876 788 933 731 q 739 882 815 850 q 578 914 664 914 m 578 1007 q 777 968 684 1007 q 943 854 871 929 q 1048 692 1012 783 q 1085 499 1085 602 q 1046 302 1085 394 q 935 140 1008 210 q 768 30 861 68 q 578 -7 676 -7 q 383 32 475 -7 q 218 146 291 71 q 109 310 147 220 q 72 499 72 401 q 112 696 72 602 q 226 863 152 790 q 387 970 297 934 q 578 1007 477 1007 "},"L":{"x_min":-5,"x_max":777,"ha":827,"o":"m -5 0 l 211 999 l 461 999 l 294 212 l 777 212 l 730 0 l -5 0 "}," ":{"x_min":0,"x_max":0,"ha":410},"∑":{"x_min":33,"x_max":999,"ha":1031,"o":"m 48 999 l 954 999 l 954 794 l 385 794 l 789 381 l 392 -59 l 999 -59 l 999 -266 l 33 -266 l 33 -141 l 497 370 l 48 821 l 48 999 "},"À":{"x_min":-92,"x_max":887,"ha":949,"o":"m 573 376 l 514 764 l 342 376 l 573 376 m -92 0 l 407 999 l 684 999 l 887 0 l 628 0 l 601 173 l 250 173 l 176 0 l -92 0 m 380 1337 l 562 1337 l 674 1086 l 579 1086 l 380 1337 "},"+":{"x_min":172,"x_max":985,"ha":1157,"o":"m 498 828 l 659 828 l 659 493 l 985 493 l 985 336 l 659 336 l 659 0 l 498 0 l 498 336 l 172 336 l 172 493 l 498 493 l 498 828 "},"½":{"x_min":83,"x_max":1237,"ha":1265,"o":"m 737 0 q 785 123 741 65 q 914 235 829 181 q 960 264 930 246 q 1086 397 1086 339 q 1068 441 1086 425 q 1020 457 1050 457 q 963 434 983 457 q 942 375 943 412 l 800 375 q 864 504 806 455 q 1014 553 923 553 q 1175 508 1114 553 q 1237 393 1237 463 q 1202 290 1237 334 q 1084 199 1168 245 q 1048 180 1072 192 q 935 109 967 136 l 1204 109 l 1178 0 l 737 0 m 285 0 l 860 985 l 984 985 l 408 0 l 285 0 m 144 422 l 238 811 q 164 801 202 804 q 83 796 125 797 l 102 878 q 230 911 183 889 q 301 973 278 934 l 429 973 l 297 422 l 144 422 "},"Ë":{"x_min":0,"x_max":908,"ha":895,"o":"m 0 0 l 213 999 l 908 999 l 866 799 l 423 799 l 384 616 l 790 616 l 749 419 l 342 419 l 296 200 l 764 200 l 721 0 l 0 0 m 621 1120 l 659 1303 l 829 1303 l 790 1120 l 621 1120 m 376 1120 l 415 1303 l 584 1303 l 544 1120 l 376 1120 "},"'":{"x_min":52,"x_max":201,"ha":252,"o":"m 52 975 l 201 975 l 201 595 l 52 595 l 52 975 "},"Š":{"x_min":18,"x_max":895,"ha":920,"o":"m 18 319 l 256 319 q 301 202 258 239 q 431 165 343 165 q 549 194 504 165 q 594 272 594 224 q 438 400 594 331 q 350 441 382 425 q 179 565 233 497 q 126 726 126 633 q 224 942 126 862 q 492 1023 323 1023 q 785 942 683 1023 q 895 704 887 861 l 663 704 l 663 706 q 622 805 663 771 q 501 839 581 839 q 398 811 437 839 q 359 741 359 784 q 504 622 359 687 q 591 581 560 597 q 775 453 721 520 q 829 291 829 386 q 723 57 829 142 q 433 -28 617 -28 q 132 61 239 -28 q 18 319 26 150 m 416 1337 l 512 1337 l 597 1200 l 747 1337 l 851 1337 l 673 1086 l 500 1086 l 416 1337 "},"˛":{"x_min":68,"x_max":328,"ha":694,"o":"m 272 0 q 210 -70 228 -39 q 192 -133 192 -101 q 204 -174 192 -161 q 243 -187 216 -187 l 328 -187 l 300 -317 l 208 -317 q 106 -280 145 -317 q 68 -183 68 -243 q 99 -89 68 -133 q 200 0 131 -46 l 272 0 "},"ð":{"x_min":11,"x_max":815,"ha":900,"o":"m 519 693 q 494 741 510 714 q 446 810 478 768 l 253 733 l 222 804 l 393 869 q 367 895 380 882 q 339 922 354 907 l 469 1029 q 522 989 496 1010 q 572 945 547 968 l 740 1009 l 769 938 l 634 884 q 769 655 724 776 q 815 405 815 534 q 697 89 815 207 q 383 -28 579 -28 q 111 61 211 -28 q 11 305 11 151 q 125 597 11 486 q 430 708 240 708 q 478 704 456 708 q 519 693 499 700 m 446 543 q 307 473 362 543 q 252 299 252 404 q 288 189 252 228 q 392 151 324 151 q 525 222 472 151 q 579 402 579 293 q 544 505 579 468 q 446 543 509 543 "},"ş":{"x_min":-2,"x_max":717,"ha":790,"o":"m -2 236 l 212 236 q 254 156 220 183 q 346 129 288 129 q 423 146 393 129 q 453 192 453 164 q 321 289 453 235 q 265 312 285 304 q 93 415 135 369 q 52 531 52 462 q 141 700 52 637 q 382 764 230 764 q 621 703 534 764 q 717 531 708 642 l 504 531 q 461 597 490 577 q 380 617 432 617 q 311 601 337 617 q 285 560 285 585 q 398 481 285 525 q 522 429 473 451 q 647 341 606 391 q 688 225 688 291 q 596 45 688 114 q 355 -24 504 -24 q 101 44 195 -24 q -2 236 7 113 m 70 -297 l 104 -207 q 189 -233 148 -224 q 264 -243 230 -243 q 312 -229 294 -243 q 330 -192 330 -215 q 304 -156 330 -166 q 213 -146 279 -146 l 194 -146 l 245 0 l 322 0 l 300 -63 q 419 -93 380 -64 q 459 -180 459 -123 q 410 -297 459 -256 q 270 -338 361 -338 q 183 -327 233 -338 q 70 -297 133 -317 "},"ı":{"x_min":-21,"x_max":376,"ha":415,"o":"m -21 0 l 136 737 l 376 737 l 219 0 l -21 0 "},"Ć":{"x_min":46,"x_max":983,"ha":1032,"o":"m 693 340 l 936 340 q 776 72 908 176 q 465 -31 644 -31 q 159 90 272 -31 q 46 417 46 212 q 86 650 46 537 q 201 849 126 762 q 374 980 275 935 q 587 1026 474 1026 q 873 927 765 1026 q 983 665 981 828 l 740 665 q 697 781 737 741 q 585 822 658 822 q 467 788 523 822 q 375 695 412 755 q 315 557 337 636 q 293 408 293 478 q 345 240 293 301 q 489 179 398 179 q 613 219 562 179 q 693 340 665 260 m 488 1086 l 646 1337 l 858 1337 l 591 1086 l 488 1086 "},"ä":{"x_min":-16,"x_max":731,"ha":823,"o":"m 467 351 q 353 323 427 336 q 222 221 222 299 q 245 164 222 186 q 306 142 269 142 q 411 186 375 142 q 467 351 447 231 m 435 76 q 329 6 387 30 q 206 -17 271 -17 q 45 43 106 -17 q -16 203 -16 103 q 52 372 -16 312 q 265 450 121 433 q 347 458 295 454 q 498 538 498 473 q 473 587 498 568 q 409 606 448 606 q 335 589 362 606 q 297 535 309 572 l 70 535 q 184 707 97 650 q 417 765 271 765 q 648 703 565 765 q 731 533 731 642 q 729 494 731 511 q 724 463 727 477 l 655 124 q 652 101 653 114 q 651 76 651 89 q 655 45 651 57 q 670 23 659 33 l 670 0 l 435 0 l 435 76 m 504 859 l 542 1042 l 712 1042 l 673 859 l 504 859 m 259 859 l 298 1042 l 467 1042 l 427 859 l 259 859 "},"¹":{"x_min":87,"x_max":450,"ha":542,"o":"m 150 382 l 249 800 q 170 788 210 792 q 87 785 131 785 l 106 871 q 240 907 191 883 q 314 973 289 931 l 450 973 l 310 382 l 150 382 "},"£":{"x_min":52,"x_max":806,"ha":819,"o":"m 87 -17 l 52 160 q 150 252 117 198 q 183 376 183 307 q 183 395 183 389 q 182 408 182 402 l 54 408 l 75 505 l 169 505 q 156 598 160 563 q 153 661 153 634 q 244 897 153 810 q 494 985 336 985 q 723 916 640 985 q 806 726 806 847 q 805 699 806 711 q 804 675 805 688 l 590 674 l 590 687 l 590 701 q 566 782 590 754 q 497 810 542 810 q 406 768 435 810 q 377 637 377 727 q 383 552 377 623 q 386 505 385 523 l 568 505 l 548 408 l 392 408 q 358 270 387 325 q 273 177 330 216 q 334 194 305 189 q 395 200 363 200 q 500 187 433 200 q 599 175 567 175 q 665 182 628 175 q 743 205 702 190 l 702 8 q 631 -10 667 -4 q 558 -17 594 -17 q 400 10 500 -17 q 254 37 299 37 q 174 24 214 37 q 87 -17 134 11 "},"W":{"x_min":58,"x_max":1273,"ha":1218,"o":"m 191 0 l 58 999 l 291 999 l 346 429 q 348 386 348 406 q 349 344 349 366 q 354 388 351 369 q 362 421 357 407 l 541 999 l 792 999 l 822 429 q 823 423 822 427 q 826 389 826 404 q 825 367 826 378 q 824 344 825 356 q 830 385 826 366 q 839 426 833 404 l 1022 999 l 1273 999 l 902 0 l 664 0 l 628 604 q 627 622 628 613 q 627 647 627 631 q 628 675 627 653 q 630 694 629 687 q 622 643 626 667 q 611 602 617 619 l 428 0 l 191 0 "},"Ğ":{"x_min":50,"x_max":1019,"ha":1093,"o":"m 1014 530 l 902 0 l 736 0 l 729 86 q 598 4 666 30 q 446 -22 529 -22 q 158 96 266 -22 q 50 411 50 215 q 205 852 50 678 q 601 1026 360 1026 q 896 932 783 1026 q 1019 681 1010 838 l 776 681 q 718 788 764 751 q 597 825 673 825 q 384 709 468 825 q 300 415 300 593 q 355 240 300 304 q 508 177 411 177 q 647 221 587 177 q 736 346 706 265 l 512 346 l 551 530 l 1014 530 m 510 1315 l 598 1315 l 598 1308 q 622 1242 598 1264 q 697 1221 646 1221 q 788 1243 752 1221 q 847 1315 825 1266 l 939 1315 q 845 1159 909 1212 q 685 1107 781 1107 q 552 1152 596 1107 q 508 1285 508 1197 q 509 1300 508 1291 q 510 1315 510 1310 "},"v":{"x_min":18,"x_max":782,"ha":739,"o":"m 115 0 l 18 737 l 262 737 l 287 248 l 530 737 l 782 737 l 357 0 l 115 0 "},">":{"x_min":179,"x_max":978,"ha":1157,"o":"m 179 823 l 978 492 l 978 334 l 179 5 l 179 177 l 758 413 l 179 651 l 179 823 "},"û":{"x_min":20,"x_max":847,"ha":895,"o":"m 847 737 l 690 0 l 465 0 l 489 105 q 366 11 429 42 q 234 -20 303 -20 q 75 34 131 -20 q 20 188 20 88 q 24 253 20 217 q 37 328 28 288 l 123 737 l 364 737 l 282 348 q 271 291 275 317 q 268 253 268 264 q 288 190 268 211 q 350 169 308 169 q 460 217 414 169 q 524 353 506 266 l 607 737 l 847 737 m 724 825 l 627 825 l 542 959 l 391 825 l 289 825 l 465 1076 l 637 1076 l 724 825 "},"Ð":{"x_min":-8,"x_max":1015,"ha":1064,"o":"m 305 207 l 434 207 q 591 236 530 207 q 691 330 651 265 q 742 454 723 381 q 761 599 761 526 q 710 747 761 703 q 536 791 659 791 l 429 791 l 388 597 l 575 597 l 546 458 l 358 458 l 305 207 m 4 0 l 101 458 l -8 458 l 21 597 l 132 597 l 216 999 l 514 999 q 721 986 653 999 q 841 944 790 973 q 969 807 924 897 q 1015 594 1015 716 q 977 356 1015 469 q 870 165 939 244 q 689 37 792 75 q 387 0 587 0 l 4 0 "},"r":{"x_min":-20,"x_max":610,"ha":604,"o":"m -20 0 l 137 737 l 359 737 l 323 563 q 429 710 366 664 q 587 757 493 757 q 598 756 593 757 q 610 755 603 756 l 559 514 q 526 524 543 520 q 491 527 508 527 q 355 470 403 527 q 272 242 308 413 l 221 0 l -20 0 "},"Č":{"x_min":46,"x_max":983,"ha":1032,"o":"m 693 340 l 936 340 q 776 72 908 176 q 465 -31 644 -31 q 159 90 272 -31 q 46 417 46 212 q 86 650 46 537 q 201 849 126 762 q 374 980 275 935 q 587 1026 474 1026 q 873 927 765 1026 q 983 665 981 828 l 740 665 q 697 781 737 741 q 585 822 658 822 q 467 788 523 822 q 375 695 412 755 q 315 557 337 636 q 293 408 293 478 q 345 240 293 301 q 489 179 398 179 q 613 219 562 179 q 693 340 665 260 m 444 1337 l 540 1337 l 625 1200 l 775 1337 l 879 1337 l 701 1086 l 528 1086 l 444 1337 "},"x":{"x_min":-89,"x_max":784,"ha":765,"o":"m -89 0 l 216 376 l 38 737 l 296 737 l 372 532 l 516 737 l 784 737 l 481 368 l 657 0 l 399 0 l 323 205 l 177 0 l -89 0 "},"è":{"x_min":16,"x_max":771,"ha":846,"o":"m 268 452 l 537 452 q 538 462 537 455 q 539 472 539 469 q 509 570 539 536 q 425 605 479 605 q 321 564 362 605 q 268 452 279 523 m 483 221 l 734 221 q 600 45 701 111 q 365 -21 500 -21 q 109 73 202 -21 q 16 330 16 168 q 132 638 16 515 q 426 762 248 762 q 680 670 590 762 q 771 413 771 578 q 768 363 771 389 q 759 301 765 336 l 252 301 l 252 276 q 281 182 252 214 q 366 150 310 150 q 437 168 407 150 q 483 221 466 186 m 281 1076 l 463 1076 l 575 825 l 480 825 l 281 1076 "},"Ø":{"x_min":13.59375,"x_max":1094.9375,"ha":1112,"o":"m 13 35 l 127 149 q 71 279 89 213 q 53 414 53 344 q 206 853 53 683 q 604 1023 360 1023 q 775 997 699 1023 q 911 921 852 972 l 1022 1031 l 1094 957 l 980 845 q 1040 720 1021 782 q 1059 585 1059 658 q 904 141 1059 313 q 506 -31 749 -31 q 332 -4 408 -31 q 200 74 256 21 l 84 -39 l 13 35 m 318 324 l 751 753 q 688 799 729 783 q 595 816 647 816 q 390 701 470 816 q 310 410 310 586 q 312 367 310 389 q 318 324 314 346 m 792 670 l 357 242 q 419 193 380 210 q 511 176 459 176 q 718 291 634 176 q 803 570 803 407 q 800 623 803 598 q 792 670 797 647 "},"÷":{"x_min":173,"x_max":985,"ha":1157,"o":"m 579 251 q 658 218 625 251 q 691 138 691 185 q 658 59 691 92 q 579 27 626 27 q 499 59 532 27 q 467 138 467 92 q 500 217 467 184 q 579 251 533 251 m 173 493 l 985 493 l 985 336 l 173 336 l 173 493 m 579 802 q 658 768 625 802 q 691 689 691 735 q 658 610 691 643 q 578 578 625 578 q 499 610 531 578 q 467 689 467 643 q 500 768 467 735 q 579 802 533 802 "},"h":{"x_min":-22,"x_max":806,"ha":895,"o":"m -22 0 l 190 999 l 429 999 l 348 633 q 461 727 401 696 q 590 758 521 758 q 749 703 692 758 q 806 549 806 648 q 801 483 806 519 q 787 408 796 447 l 701 0 l 461 0 l 543 389 q 553 446 549 420 q 557 483 557 472 q 536 546 557 525 q 474 568 516 568 q 364 519 410 568 q 299 384 318 471 l 218 0 l -22 0 "},".":{"x_min":-26,"x_max":277,"ha":410,"o":"m -26 0 l 25 241 l 277 241 l 225 0 l -26 0 "},"f":{"x_min":3,"x_max":586,"ha":489,"o":"m 3 0 l 129 595 l 25 595 l 55 737 l 160 737 q 257 953 190 892 q 462 1015 325 1015 q 521 1012 491 1015 q 586 1004 552 1009 l 551 845 q 521 849 535 848 q 494 851 507 851 q 432 826 453 851 q 401 737 411 802 l 529 737 l 498 595 l 371 595 l 244 0 l 3 0 "},"“":{"x_min":110,"x_max":736,"ha":692,"o":"m 454 748 q 549 967 490 909 q 726 1025 607 1025 l 736 1025 l 718 944 q 629 913 658 940 q 586 822 599 886 l 704 822 l 657 610 l 424 610 l 454 748 m 140 748 q 235 967 176 909 q 412 1025 294 1025 l 423 1025 l 404 944 q 316 913 345 940 q 273 822 287 887 l 390 822 l 343 610 l 110 610 l 140 748 "},"A":{"x_min":-92,"x_max":887,"ha":949,"o":"m 573 376 l 514 764 l 342 376 l 573 376 m -92 0 l 407 999 l 684 999 l 887 0 l 628 0 l 601 173 l 250 173 l 176 0 l -92 0 "},"O":{"x_min":54,"x_max":1060,"ha":1112,"o":"m 598 816 q 389 698 471 816 q 308 405 308 580 q 361 236 308 296 q 512 176 415 176 q 723 293 639 176 q 807 589 807 411 q 753 758 807 700 q 598 816 699 816 m 54 426 q 208 855 54 687 q 606 1023 363 1023 q 938 902 817 1023 q 1060 570 1060 781 q 904 140 1060 309 q 509 -29 749 -29 q 176 93 298 -29 q 54 426 54 215 "},"π":{"x_min":4.0625,"x_max":1043,"ha":1038,"o":"m 1043 739 l 1016 582 l 895 582 l 804 0 l 562 0 l 652 582 l 496 582 l 403 0 l 164 0 l 254 582 l 236 582 q 188 557 207 582 q 163 492 168 533 l 4 492 q 88 686 26 633 q 299 739 150 739 l 1043 739 "},"‘":{"x_min":110,"x_max":423,"ha":378,"o":"m 140 748 q 235 967 176 909 q 412 1025 294 1025 l 423 1025 l 404 944 q 316 913 345 940 q 273 822 287 887 l 390 822 l 343 610 l 110 610 l 140 748 "},"3":{"x_min":11,"x_max":786,"ha":819,"o":"m 11 299 l 234 299 q 233 290 233 294 q 233 275 233 285 q 262 182 233 215 q 347 149 292 149 q 443 193 405 149 q 481 307 481 237 q 445 389 481 362 q 339 419 409 417 l 372 573 l 377 573 q 513 606 469 573 q 558 710 558 640 q 528 783 558 755 q 451 812 499 812 q 373 781 404 812 q 333 694 342 750 l 115 694 q 225 904 130 826 q 463 983 320 983 q 696 909 606 983 q 786 719 786 835 q 735 570 786 630 q 581 478 684 509 q 685 394 650 446 q 721 269 721 341 q 620 57 721 137 q 352 -22 520 -22 q 101 56 191 -22 q 11 275 11 135 l 11 299 "},"9":{"x_min":16,"x_max":774,"ha":819,"o":"m 549 682 q 517 774 549 740 q 430 808 485 808 q 323 753 364 808 q 282 612 282 699 q 313 518 282 552 q 400 485 345 485 q 508 538 468 485 q 549 682 549 591 m 494 369 q 410 338 451 348 q 330 328 370 328 q 132 406 208 328 q 57 612 57 484 q 159 880 57 778 q 430 982 262 982 q 684 882 594 982 q 774 601 774 782 q 739 361 774 482 q 645 151 704 240 q 503 20 588 65 q 312 -25 418 -25 q 95 42 174 -25 q 16 228 16 110 l 16 245 l 230 245 q 255 170 230 197 q 326 143 281 143 q 430 196 390 143 q 494 369 469 249 "},"l":{"x_min":-21,"x_max":425,"ha":415,"o":"m -21 0 l 191 999 l 425 999 l 213 0 l -21 0 "},"":{"x_min":3,"x_max":911,"ha":895,"o":"m 630 818 l 669 1006 l 911 1006 l 870 818 l 630 818 m 457 0 l 613 737 l 854 737 l 697 0 l 457 0 m 3 0 l 129 595 l 25 595 l 55 737 l 160 737 q 257 953 190 892 q 462 1015 325 1015 q 522 1012 491 1015 q 586 1004 552 1009 l 551 845 q 521 849 536 848 q 494 851 507 851 q 432 826 453 851 q 401 737 411 802 l 529 737 l 498 595 l 371 595 l 244 0 l 3 0 "},"4":{"x_min":-31,"x_max":794,"ha":819,"o":"m 454 400 l 537 785 l 181 400 l 454 400 m 369 0 l 416 218 l -31 218 l 19 452 l 508 958 l 794 958 l 676 400 l 779 400 l 740 218 l 637 218 l 591 0 l 369 0 "},"Ü":{"x_min":69,"x_max":1052,"ha":1048,"o":"m 198 999 l 449 999 l 342 487 q 325 387 331 435 q 319 317 319 340 q 358 216 319 253 q 467 180 397 180 q 599 233 553 180 q 680 450 645 286 l 795 999 l 1052 999 l 956 547 q 948 508 953 534 q 831 138 888 218 q 680 14 774 57 q 463 -28 586 -28 q 173 61 277 -28 q 69 311 69 150 q 111 583 69 383 l 115 604 l 198 999 m 689 1120 l 727 1303 l 897 1303 l 858 1120 l 689 1120 m 444 1120 l 483 1303 l 652 1303 l 612 1120 l 444 1120 "},"à":{"x_min":-16,"x_max":731,"ha":823,"o":"m 467 351 q 353 323 427 336 q 222 221 222 299 q 245 164 222 186 q 306 142 269 142 q 411 186 375 142 q 467 351 447 231 m 435 76 q 329 6 387 30 q 206 -17 271 -17 q 45 43 106 -17 q -16 203 -16 103 q 52 372 -16 312 q 265 450 121 433 q 347 458 295 454 q 498 538 498 473 q 473 587 498 568 q 409 606 448 606 q 335 589 362 606 q 297 535 309 572 l 70 535 q 184 707 97 650 q 417 765 271 765 q 648 703 565 765 q 731 533 731 642 q 729 494 731 511 q 724 463 727 477 l 655 124 q 652 101 653 114 q 651 76 651 89 q 655 45 651 57 q 670 23 659 33 l 670 0 l 435 0 l 435 76 m 275 1076 l 457 1076 l 569 825 l 474 825 l 275 1076 "},"ó":{"x_min":12,"x_max":826,"ha":899,"o":"m 451 585 q 309 506 365 585 q 253 313 253 427 q 287 194 253 236 q 385 152 322 152 q 527 231 470 152 q 585 432 585 311 q 549 544 585 504 q 451 585 514 585 m 12 316 q 135 640 12 516 q 455 765 258 765 q 726 671 626 765 q 826 416 826 577 q 701 96 826 221 q 380 -28 577 -28 q 111 64 210 -28 q 12 316 12 157 m 367 825 l 525 1076 l 737 1076 l 470 825 l 367 825 "}}}
